<mxfile host="Electron" modified="2024-05-14T08:21:13.191Z" agent="Mozilla/5.0 (Windows NT 10.0; Win64; x64) AppleWebKit/537.36 (KHTML, like Gecko) draw.io/24.4.0 Chrome/120.0.6099.109 Electron/28.1.0 Safari/537.36" etag="DhyC1C3raBmtqVlIKs3m" version="24.4.0" type="device" pages="8">
  <diagram name="language" id="mmSgG2nm7usNjiMwB8Ih">
    <mxGraphModel dx="1050" dy="256" grid="1" gridSize="10" guides="1" tooltips="1" connect="1" arrows="1" fold="1" page="1" pageScale="1" pageWidth="291" pageHeight="413" math="0" shadow="0">
      <root>
        <mxCell id="0" />
        <mxCell id="1" parent="0" />
        <mxCell id="u0GNULZLBVLqyrxLU11S-64" value="" style="edgeStyle=orthogonalEdgeStyle;rounded=0;orthogonalLoop=1;jettySize=auto;fontFamily=OPPO Sans;fontSize=18;fontColor=default;disableMultiStroke=1;disableMultiStrokeFill=1;labelBackgroundColor=none;sketch=1;curveFitting=1;jiggle=0;fillColor=#f5f5f5;strokeColor=#666666;" parent="1" source="u0GNULZLBVLqyrxLU11S-62" target="u0GNULZLBVLqyrxLU11S-63" edge="1">
          <mxGeometry relative="1" as="geometry" />
        </mxCell>
        <mxCell id="u0GNULZLBVLqyrxLU11S-62" value="机器语言" style="rounded=0;fontSize=18;fontFamily=OPPO Sans;disableMultiStrokeFill=1;disableMultiStroke=1;autosize=0;container=0;labelBackgroundColor=none;fillColor=#dae8fc;strokeColor=#6c8ebf;sketch=1;curveFitting=1;jiggle=0;" parent="1" vertex="1">
          <mxGeometry x="40" y="535" width="100" height="50" as="geometry" />
        </mxCell>
        <mxCell id="u0GNULZLBVLqyrxLU11S-66" value="" style="edgeStyle=orthogonalEdgeStyle;rounded=0;orthogonalLoop=1;jettySize=auto;fontFamily=OPPO Sans;fontSize=18;fontColor=default;disableMultiStroke=1;disableMultiStrokeFill=1;labelBackgroundColor=none;sketch=1;curveFitting=1;jiggle=0;fillColor=#f5f5f5;strokeColor=#666666;" parent="1" source="u0GNULZLBVLqyrxLU11S-63" target="u0GNULZLBVLqyrxLU11S-65" edge="1">
          <mxGeometry relative="1" as="geometry" />
        </mxCell>
        <mxCell id="u0GNULZLBVLqyrxLU11S-63" value="汇编语言" style="fontSize=18;fontFamily=OPPO Sans;rounded=0;disableMultiStrokeFill=1;disableMultiStroke=1;container=0;labelBackgroundColor=none;fillColor=#dae8fc;strokeColor=#6c8ebf;sketch=1;curveFitting=1;jiggle=0;" parent="1" vertex="1">
          <mxGeometry x="199.75" y="535" width="100" height="50" as="geometry" />
        </mxCell>
        <mxCell id="u0GNULZLBVLqyrxLU11S-78" value="" style="edgeStyle=orthogonalEdgeStyle;rounded=0;orthogonalLoop=1;jettySize=auto;exitX=1;exitY=0.5;exitDx=0;exitDy=0;entryX=0;entryY=0.5;entryDx=0;entryDy=0;fontFamily=OPPO Sans;fontSize=18;fontColor=default;disableMultiStroke=1;disableMultiStrokeFill=1;labelBackgroundColor=none;sketch=1;curveFitting=1;jiggle=0;fillColor=#f5f5f5;strokeColor=#666666;" parent="1" source="u0GNULZLBVLqyrxLU11S-65" target="u0GNULZLBVLqyrxLU11S-71" edge="1">
          <mxGeometry relative="1" as="geometry" />
        </mxCell>
        <mxCell id="u0GNULZLBVLqyrxLU11S-79" value="" style="edgeStyle=orthogonalEdgeStyle;rounded=0;orthogonalLoop=1;jettySize=auto;exitX=1;exitY=0.5;exitDx=0;exitDy=0;entryX=0;entryY=0.5;entryDx=0;entryDy=0;fontFamily=OPPO Sans;fontSize=18;fontColor=default;disableMultiStroke=1;disableMultiStrokeFill=1;labelBackgroundColor=none;sketch=1;curveFitting=1;jiggle=0;fillColor=#f5f5f5;strokeColor=#666666;" parent="1" source="u0GNULZLBVLqyrxLU11S-65" target="u0GNULZLBVLqyrxLU11S-67" edge="1">
          <mxGeometry relative="1" as="geometry" />
        </mxCell>
        <mxCell id="u0GNULZLBVLqyrxLU11S-65" value="高级语言" style="fontSize=18;fontFamily=OPPO Sans;rounded=0;disableMultiStrokeFill=1;disableMultiStroke=1;container=0;labelBackgroundColor=none;fillColor=#dae8fc;strokeColor=#6c8ebf;sketch=1;curveFitting=1;jiggle=0;" parent="1" vertex="1">
          <mxGeometry x="360" y="535" width="100" height="50" as="geometry" />
        </mxCell>
        <mxCell id="u0GNULZLBVLqyrxLU11S-70" value="" style="edgeStyle=orthogonalEdgeStyle;rounded=0;orthogonalLoop=1;jettySize=auto;fontFamily=OPPO Sans;fontSize=18;fontColor=default;disableMultiStroke=1;disableMultiStrokeFill=1;labelBackgroundColor=none;sketch=1;curveFitting=1;jiggle=0;fillColor=#f5f5f5;strokeColor=#666666;" parent="1" source="u0GNULZLBVLqyrxLU11S-67" target="u0GNULZLBVLqyrxLU11S-69" edge="1">
          <mxGeometry relative="1" as="geometry" />
        </mxCell>
        <mxCell id="u0GNULZLBVLqyrxLU11S-67" value="面向过程" style="fontSize=18;fontFamily=OPPO Sans;rounded=0;disableMultiStrokeFill=1;disableMultiStroke=1;container=0;labelBackgroundColor=none;fillColor=#d5e8d4;strokeColor=#82b366;sketch=1;curveFitting=1;jiggle=0;" parent="1" vertex="1">
          <mxGeometry x="520" y="480" width="90" height="40" as="geometry" />
        </mxCell>
        <mxCell id="u0GNULZLBVLqyrxLU11S-69" value="C" style="fontSize=18;fontFamily=OPPO Sans;rounded=0;disableMultiStrokeFill=1;disableMultiStroke=1;container=0;labelBackgroundColor=none;fillColor=#ffe6cc;strokeColor=#d79b00;sketch=1;curveFitting=1;jiggle=0;" parent="1" vertex="1">
          <mxGeometry x="680" y="480" width="40" height="40" as="geometry" />
        </mxCell>
        <mxCell id="u0GNULZLBVLqyrxLU11S-80" value="" style="edgeStyle=orthogonalEdgeStyle;rounded=0;orthogonalLoop=1;jettySize=auto;entryX=0;entryY=0.5;entryDx=0;entryDy=0;fontFamily=OPPO Sans;fontSize=18;fontColor=default;disableMultiStroke=1;disableMultiStrokeFill=1;labelBackgroundColor=none;sketch=1;curveFitting=1;jiggle=0;fillColor=#f5f5f5;strokeColor=#666666;" parent="1" source="u0GNULZLBVLqyrxLU11S-71" target="u0GNULZLBVLqyrxLU11S-74" edge="1">
          <mxGeometry relative="1" as="geometry" />
        </mxCell>
        <mxCell id="u0GNULZLBVLqyrxLU11S-81" value="" style="edgeStyle=orthogonalEdgeStyle;rounded=0;orthogonalLoop=1;jettySize=auto;exitX=1;exitY=0.5;exitDx=0;exitDy=0;entryX=0;entryY=0.5;entryDx=0;entryDy=0;fontFamily=OPPO Sans;fontSize=18;fontColor=default;disableMultiStroke=1;disableMultiStrokeFill=1;labelBackgroundColor=none;sketch=1;curveFitting=1;jiggle=0;fillColor=#f5f5f5;strokeColor=#666666;" parent="1" source="u0GNULZLBVLqyrxLU11S-71" target="u0GNULZLBVLqyrxLU11S-72" edge="1">
          <mxGeometry relative="1" as="geometry" />
        </mxCell>
        <mxCell id="u0GNULZLBVLqyrxLU11S-82" value="" style="edgeStyle=orthogonalEdgeStyle;rounded=0;orthogonalLoop=1;jettySize=auto;exitX=1;exitY=0.5;exitDx=0;exitDy=0;entryX=0;entryY=0.5;entryDx=0;entryDy=0;fontFamily=OPPO Sans;fontSize=18;fontColor=default;disableMultiStroke=1;disableMultiStrokeFill=1;labelBackgroundColor=none;sketch=1;curveFitting=1;jiggle=0;fillColor=#f5f5f5;strokeColor=#666666;" parent="1" source="u0GNULZLBVLqyrxLU11S-71" target="u0GNULZLBVLqyrxLU11S-75" edge="1">
          <mxGeometry relative="1" as="geometry" />
        </mxCell>
        <mxCell id="u0GNULZLBVLqyrxLU11S-71" value="面向对象" style="rounded=0;disableMultiStroke=1;disableMultiStrokeFill=1;align=center;verticalAlign=middle;fontFamily=OPPO Sans;fontSize=18;container=0;labelBackgroundColor=none;fillColor=#d5e8d4;strokeColor=#82b366;sketch=1;curveFitting=1;jiggle=0;" parent="1" vertex="1">
          <mxGeometry x="520" y="600" width="90" height="40" as="geometry" />
        </mxCell>
        <mxCell id="u0GNULZLBVLqyrxLU11S-72" value="C++" style="fontSize=18;fontFamily=OPPO Sans;rounded=0;disableMultiStroke=1;disableMultiStrokeFill=1;container=0;labelBackgroundColor=none;fillColor=#ffe6cc;strokeColor=#d79b00;sketch=1;curveFitting=1;jiggle=0;" parent="1" vertex="1">
          <mxGeometry x="680" y="540" width="60" height="40" as="geometry" />
        </mxCell>
        <mxCell id="u0GNULZLBVLqyrxLU11S-74" value="Java" style="rounded=0;disableMultiStroke=1;disableMultiStrokeFill=1;align=center;verticalAlign=middle;fontFamily=OPPO Sans;fontSize=18;container=0;labelBackgroundColor=none;fillColor=#ffe6cc;strokeColor=#d79b00;sketch=1;curveFitting=1;jiggle=0;" parent="1" vertex="1">
          <mxGeometry x="680" y="600" width="60" height="40" as="geometry" />
        </mxCell>
        <mxCell id="u0GNULZLBVLqyrxLU11S-75" value="Python" style="rounded=0;disableMultiStroke=1;disableMultiStrokeFill=1;align=center;verticalAlign=middle;fontFamily=OPPO Sans;fontSize=18;container=0;labelBackgroundColor=none;fillColor=#ffe6cc;strokeColor=#d79b00;sketch=1;curveFitting=1;jiggle=0;" parent="1" vertex="1">
          <mxGeometry x="680" y="660" width="80" height="40" as="geometry" />
        </mxCell>
        <mxCell id="u0GNULZLBVLqyrxLU11S-88" value="第一代" style="rounded=0;fontSize=16;fontFamily=OPPO Sans;disableMultiStrokeFill=1;disableMultiStroke=1;container=0;labelBackgroundColor=none;fillColor=#fff2cc;strokeColor=#d6b656;sketch=1;curveFitting=1;jiggle=0;" parent="1" vertex="1">
          <mxGeometry x="60" y="585" width="60" height="25" as="geometry" />
        </mxCell>
        <mxCell id="u0GNULZLBVLqyrxLU11S-89" value="第二代" style="rounded=0;fontSize=16;fontFamily=OPPO Sans;disableMultiStrokeFill=1;disableMultiStroke=1;container=0;labelBackgroundColor=none;fillColor=#fff2cc;strokeColor=#d6b656;sketch=1;curveFitting=1;jiggle=0;" parent="1" vertex="1">
          <mxGeometry x="219.75" y="585" width="60" height="25" as="geometry" />
        </mxCell>
        <mxCell id="u0GNULZLBVLqyrxLU11S-90" value="第三代" style="rounded=0;fontSize=16;fontFamily=OPPO Sans;disableMultiStrokeFill=1;disableMultiStroke=1;container=0;labelBackgroundColor=none;fillColor=#fff2cc;strokeColor=#d6b656;sketch=1;curveFitting=1;jiggle=0;" parent="1" vertex="1">
          <mxGeometry x="380" y="585" width="60" height="25" as="geometry" />
        </mxCell>
      </root>
    </mxGraphModel>
  </diagram>
  <diagram id="yYMFCVxuEQMLCUcxUtG9" name="computer-hardware">
    <mxGraphModel dx="1050" dy="669" grid="1" gridSize="10" guides="1" tooltips="1" connect="1" arrows="1" fold="1" page="1" pageScale="1" pageWidth="291" pageHeight="413" math="0" shadow="0">
      <root>
        <mxCell id="0" />
        <mxCell id="1" parent="0" />
        <mxCell id="6etorMcq83W7uJ1pmvJC-5" value="" style="rounded=0;sketch=1;jiggle=0;disableMultiStroke=0;curveFitting=1;strokeColor=#6c8ebf;align=center;verticalAlign=middle;fontFamily=OPPO Sans;fontSize=18;fillColor=#dae8fc;container=0;" parent="1" vertex="1">
          <mxGeometry x="80" y="120" width="460" height="100" as="geometry" />
        </mxCell>
        <mxCell id="6etorMcq83W7uJ1pmvJC-6" value="" style="edgeStyle=orthogonalEdgeStyle;rounded=0;orthogonalLoop=1;jettySize=auto;exitX=1;exitY=0.5;exitDx=0;exitDy=0;entryX=0;entryY=0.5;entryDx=0;entryDy=0;fontFamily=OPPO Sans;fontSize=18;fontColor=default;startArrow=classic;startFill=1;fillColor=#f5f5f5;strokeColor=#666666;flowAnimation=0;" parent="1" source="-ao1MJVvRFDjO6W2EFiu-2" target="6etorMcq83W7uJ1pmvJC-1" edge="1">
          <mxGeometry relative="1" as="geometry" />
        </mxCell>
        <mxCell id="-ao1MJVvRFDjO6W2EFiu-2" value="运算单元" style="rounded=0;fontSize=18;fontFamily=OPPO Sans;sketch=1;curveFitting=1;jiggle=0;disableMultiStroke=0;fillColor=#cdeb8b;strokeColor=#36393d;container=0;" parent="1" vertex="1">
          <mxGeometry x="120" y="160" width="90" height="40" as="geometry" />
        </mxCell>
        <mxCell id="6etorMcq83W7uJ1pmvJC-11" value="" style="edgeStyle=orthogonalEdgeStyle;rounded=0;orthogonalLoop=1;jettySize=auto;exitX=0.5;exitY=1;exitDx=0;exitDy=0;entryX=0.5;entryY=1;entryDx=0;entryDy=0;fontFamily=OPPO Sans;fontSize=18;fontColor=default;startArrow=classic;startFill=1;fillColor=#f5f5f5;strokeColor=#666666;flowAnimation=0;" parent="1" source="6etorMcq83W7uJ1pmvJC-1" target="6etorMcq83W7uJ1pmvJC-3" edge="1">
          <mxGeometry relative="1" as="geometry">
            <Array as="points">
              <mxPoint x="315" y="240" />
              <mxPoint x="615" y="240" />
            </Array>
          </mxGeometry>
        </mxCell>
        <mxCell id="6etorMcq83W7uJ1pmvJC-1" value="寄存器" style="rounded=0;fontSize=18;fontFamily=OPPO Sans;sketch=1;curveFitting=1;jiggle=0;disableMultiStroke=0;fillColor=#cdeb8b;strokeColor=#36393d;container=0;" parent="1" vertex="1">
          <mxGeometry x="270" y="160" width="90" height="40" as="geometry" />
        </mxCell>
        <mxCell id="6etorMcq83W7uJ1pmvJC-8" value="" style="edgeStyle=orthogonalEdgeStyle;rounded=0;orthogonalLoop=1;jettySize=auto;exitX=0;exitY=0.5;exitDx=0;exitDy=0;entryX=1;entryY=0.5;entryDx=0;entryDy=0;fontFamily=OPPO Sans;fontSize=18;fontColor=default;fillColor=#f5f5f5;strokeColor=#666666;flowAnimation=0;" parent="1" source="6etorMcq83W7uJ1pmvJC-2" target="6etorMcq83W7uJ1pmvJC-1" edge="1">
          <mxGeometry relative="1" as="geometry" />
        </mxCell>
        <mxCell id="6etorMcq83W7uJ1pmvJC-2" value="缓存" style="rounded=0;fontSize=18;fontFamily=OPPO Sans;sketch=1;curveFitting=1;jiggle=0;disableMultiStroke=0;fillColor=#cdeb8b;strokeColor=#36393d;container=0;" parent="1" vertex="1">
          <mxGeometry x="420" y="160" width="90" height="40" as="geometry" />
        </mxCell>
        <mxCell id="6etorMcq83W7uJ1pmvJC-9" value="" style="edgeStyle=orthogonalEdgeStyle;rounded=0;orthogonalLoop=1;jettySize=auto;exitX=0;exitY=0.5;exitDx=0;exitDy=0;entryX=1;entryY=0.5;entryDx=0;entryDy=0;fontFamily=OPPO Sans;fontSize=18;fontColor=default;fillColor=#f5f5f5;strokeColor=#666666;flowAnimation=0;" parent="1" source="6etorMcq83W7uJ1pmvJC-3" target="6etorMcq83W7uJ1pmvJC-2" edge="1">
          <mxGeometry relative="1" as="geometry" />
        </mxCell>
        <mxCell id="6etorMcq83W7uJ1pmvJC-3" value="内存" style="rounded=0;fontSize=18;fontFamily=OPPO Sans;sketch=1;curveFitting=1;jiggle=0;disableMultiStroke=0;fillColor=#ffff88;strokeColor=#36393d;container=0;" parent="1" vertex="1">
          <mxGeometry x="570" y="160" width="90" height="40" as="geometry" />
        </mxCell>
        <mxCell id="6etorMcq83W7uJ1pmvJC-10" value="" style="edgeStyle=orthogonalEdgeStyle;rounded=0;orthogonalLoop=1;jettySize=auto;exitX=0;exitY=0.5;exitDx=0;exitDy=0;entryX=1;entryY=0.5;entryDx=0;entryDy=0;fontFamily=OPPO Sans;fontSize=18;fontColor=default;startArrow=classic;startFill=1;fillColor=#f5f5f5;strokeColor=#666666;flowAnimation=0;" parent="1" source="6etorMcq83W7uJ1pmvJC-4" target="6etorMcq83W7uJ1pmvJC-3" edge="1">
          <mxGeometry relative="1" as="geometry" />
        </mxCell>
        <mxCell id="6etorMcq83W7uJ1pmvJC-4" value="硬盘" style="rounded=0;fontSize=18;fontFamily=OPPO Sans;sketch=1;curveFitting=1;jiggle=0;disableMultiStroke=0;fillColor=#ffff88;strokeColor=#36393d;container=0;" parent="1" vertex="1">
          <mxGeometry x="720" y="160" width="90" height="40" as="geometry" />
        </mxCell>
        <mxCell id="6etorMcq83W7uJ1pmvJC-12" value="CPU" style="text;align=center;verticalAlign=middle;rounded=0;fontFamily=OPPO Sans;fontSize=18;fontColor=#4D4D4D;sketch=1;curveFitting=1;jiggle=0;container=0;" parent="1" vertex="1">
          <mxGeometry x="300" y="120" width="60" height="30" as="geometry" />
        </mxCell>
      </root>
    </mxGraphModel>
  </diagram>
  <diagram id="2pULyxVhZPCnsGIEmvyv" name="compilation">
    <mxGraphModel dx="1050" dy="669" grid="1" gridSize="10" guides="1" tooltips="1" connect="1" arrows="1" fold="1" page="1" pageScale="1" pageWidth="291" pageHeight="413" math="0" shadow="0">
      <root>
        <mxCell id="0" />
        <mxCell id="1" parent="0" />
        <mxCell id="UHr0J1zYiQ5DblOjRFKM-3" value="" style="edgeStyle=orthogonalEdgeStyle;rounded=0;orthogonalLoop=1;jettySize=auto;fontFamily=OPPO Sans;fontSize=18;fontColor=default;fillColor=#A8DADC;strokeColor=#457B9D;labelBackgroundColor=none;sketch=1;curveFitting=1;jiggle=1;" parent="1" source="UHr0J1zYiQ5DblOjRFKM-1" target="UHr0J1zYiQ5DblOjRFKM-2" edge="1">
          <mxGeometry relative="1" as="geometry" />
        </mxCell>
        <mxCell id="UHr0J1zYiQ5DblOjRFKM-1" value="高级语言源程序" style="rounded=0;sketch=1;jiggle=1;disableMultiStroke=0;curveFitting=1;strokeColor=#457B9D;align=center;verticalAlign=middle;fontFamily=OPPO Sans;fontSize=18;fillColor=#A8DADC;labelBackgroundColor=none;fontColor=#1D3557;" parent="1" vertex="1">
          <mxGeometry x="10" y="113.5" width="140" height="40" as="geometry" />
        </mxCell>
        <mxCell id="UHr0J1zYiQ5DblOjRFKM-5" value="" style="edgeStyle=orthogonalEdgeStyle;rounded=0;orthogonalLoop=1;jettySize=auto;fontFamily=OPPO Sans;fontSize=18;fontColor=default;fillColor=#A8DADC;strokeColor=#457B9D;labelBackgroundColor=none;sketch=1;curveFitting=1;jiggle=1;" parent="1" source="UHr0J1zYiQ5DblOjRFKM-2" target="UHr0J1zYiQ5DblOjRFKM-4" edge="1">
          <mxGeometry relative="1" as="geometry" />
        </mxCell>
        <mxCell id="UHr0J1zYiQ5DblOjRFKM-2" value="编译" style="ellipse;fontSize=18;fontFamily=OPPO Sans;rounded=0;sketch=1;jiggle=1;disableMultiStroke=0;curveFitting=1;fillColor=#A8DADC;strokeColor=#457B9D;labelBackgroundColor=none;fontColor=#1D3557;" parent="1" vertex="1">
          <mxGeometry x="210" y="100" width="67" height="67" as="geometry" />
        </mxCell>
        <mxCell id="UHr0J1zYiQ5DblOjRFKM-7" value="" style="edgeStyle=orthogonalEdgeStyle;rounded=0;orthogonalLoop=1;jettySize=auto;fontFamily=OPPO Sans;fontSize=18;fontColor=default;fillColor=#A8DADC;strokeColor=#457B9D;labelBackgroundColor=none;sketch=1;curveFitting=1;jiggle=1;" parent="1" source="UHr0J1zYiQ5DblOjRFKM-4" target="UHr0J1zYiQ5DblOjRFKM-6" edge="1">
          <mxGeometry relative="1" as="geometry" />
        </mxCell>
        <mxCell id="UHr0J1zYiQ5DblOjRFKM-10" value="执行" style="edgeLabel;align=center;verticalAlign=middle;resizable=0;points=[];rounded=0;sketch=1;jiggle=1;disableMultiStroke=0;curveFitting=1;strokeColor=#457B9D;fontFamily=OPPO Sans;fontSize=18;fontColor=#1D3557;fillColor=#A8DADC;labelBackgroundColor=none;" parent="UHr0J1zYiQ5DblOjRFKM-7" vertex="1" connectable="0">
          <mxGeometry x="0.0161" relative="1" as="geometry">
            <mxPoint y="-13" as="offset" />
          </mxGeometry>
        </mxCell>
        <mxCell id="UHr0J1zYiQ5DblOjRFKM-4" value="目标程序" style="fontSize=18;fontFamily=OPPO Sans;rounded=0;sketch=1;jiggle=1;disableMultiStroke=0;curveFitting=1;fillColor=#A8DADC;strokeColor=#457B9D;labelBackgroundColor=none;fontColor=#1D3557;" parent="1" vertex="1">
          <mxGeometry x="340" y="113.5" width="90" height="40" as="geometry" />
        </mxCell>
        <mxCell id="UHr0J1zYiQ5DblOjRFKM-6" value="结果" style="fontSize=18;fontFamily=OPPO Sans;rounded=0;sketch=1;jiggle=1;disableMultiStroke=0;curveFitting=1;fillColor=#A8DADC;strokeColor=#457B9D;labelBackgroundColor=none;fontColor=#1D3557;" parent="1" vertex="1">
          <mxGeometry x="512" y="113.5" width="60" height="40" as="geometry" />
        </mxCell>
        <mxCell id="UHr0J1zYiQ5DblOjRFKM-9" value="" style="edgeStyle=orthogonalEdgeStyle;rounded=0;orthogonalLoop=1;jettySize=auto;entryX=0.5;entryY=1;entryDx=0;entryDy=0;fontFamily=OPPO Sans;fontSize=18;fontColor=default;fillColor=#A8DADC;strokeColor=#457B9D;labelBackgroundColor=none;sketch=1;curveFitting=1;jiggle=1;" parent="1" source="UHr0J1zYiQ5DblOjRFKM-8" target="UHr0J1zYiQ5DblOjRFKM-2" edge="1">
          <mxGeometry relative="1" as="geometry" />
        </mxCell>
        <mxCell id="UHr0J1zYiQ5DblOjRFKM-8" value="编译程序" style="rounded=0;sketch=1;jiggle=1;disableMultiStroke=0;curveFitting=1;strokeColor=#457B9D;align=center;verticalAlign=middle;fontFamily=OPPO Sans;fontSize=18;fillColor=#A8DADC;labelBackgroundColor=none;fontColor=#1D3557;" parent="1" vertex="1">
          <mxGeometry x="198.5" y="210" width="90" height="40" as="geometry" />
        </mxCell>
      </root>
    </mxGraphModel>
  </diagram>
  <diagram id="iCgf8vGCJStvnHxqfePp" name="platform">
    <mxGraphModel dx="1050" dy="669" grid="1" gridSize="10" guides="1" tooltips="1" connect="1" arrows="1" fold="1" page="1" pageScale="1" pageWidth="291" pageHeight="413" math="0" shadow="0">
      <root>
        <mxCell id="0" />
        <mxCell id="1" parent="0" />
        <mxCell id="YTkRFg68Y94UzHcE4enO-43" value="" style="edgeStyle=orthogonalEdgeStyle;rounded=0;orthogonalLoop=1;jettySize=auto;entryX=0.5;entryY=0;entryDx=0;entryDy=0;sketch=1;curveFitting=1;jiggle=1;" parent="1" source="YTkRFg68Y94UzHcE4enO-21" target="YTkRFg68Y94UzHcE4enO-37" edge="1">
          <mxGeometry relative="1" as="geometry" />
        </mxCell>
        <mxCell id="YTkRFg68Y94UzHcE4enO-44" value="" style="edgeStyle=orthogonalEdgeStyle;rounded=0;orthogonalLoop=1;jettySize=auto;exitX=0.5;exitY=1;exitDx=0;exitDy=0;entryX=0.5;entryY=0;entryDx=0;entryDy=0;sketch=1;curveFitting=1;jiggle=1;" parent="1" source="YTkRFg68Y94UzHcE4enO-21" target="YTkRFg68Y94UzHcE4enO-23" edge="1">
          <mxGeometry relative="1" as="geometry" />
        </mxCell>
        <mxCell id="YTkRFg68Y94UzHcE4enO-45" value="" style="edgeStyle=orthogonalEdgeStyle;rounded=0;orthogonalLoop=1;jettySize=auto;exitX=0.5;exitY=1;exitDx=0;exitDy=0;entryX=0.5;entryY=0;entryDx=0;entryDy=0;sketch=1;curveFitting=1;jiggle=1;" parent="1" source="YTkRFg68Y94UzHcE4enO-21" target="YTkRFg68Y94UzHcE4enO-40" edge="1">
          <mxGeometry relative="1" as="geometry" />
        </mxCell>
        <mxCell id="YTkRFg68Y94UzHcE4enO-21" value="Java 程序" style="rounded=0;sketch=1;curveFitting=1;jiggle=2;fillColor=#ffcc99;strokeColor=#36393d;fontSize=22;fontFamily=OPPO Sans;" parent="1" vertex="1">
          <mxGeometry x="348.75" y="60" width="200" height="70" as="geometry" />
        </mxCell>
        <mxCell id="YTkRFg68Y94UzHcE4enO-22" value="" style="rounded=1;fontSize=18;fillColor=#f9f7ed;strokeColor=#36393d;fontFamily=OPPO Sans;sketch=1;curveFitting=1;jiggle=2;" parent="1" vertex="1">
          <mxGeometry x="40" y="240" width="217.5" height="120" as="geometry" />
        </mxCell>
        <mxCell id="YTkRFg68Y94UzHcE4enO-23" value="win 版的 JVM" style="ellipse;sketch=1;curveFitting=1;jiggle=1;fontSize=18;fillColor=#ffcc99;strokeColor=#36393d;fontFamily=OPPO Sans;" parent="1" vertex="1">
          <mxGeometry x="67.5" y="262" width="162.5" height="60" as="geometry" />
        </mxCell>
        <mxCell id="YTkRFg68Y94UzHcE4enO-24" value="Windows 系统" style="text;align=center;verticalAlign=middle;rounded=0;sketch=1;curveFitting=1;jiggle=2;fontSize=20;fontFamily=OPPO Sans;fontStyle=1;" parent="1" vertex="1">
          <mxGeometry x="80.25" y="325" width="137" height="30" as="geometry" />
        </mxCell>
        <mxCell id="YTkRFg68Y94UzHcE4enO-36" value="" style="rounded=1;sketch=1;curveFitting=1;jiggle=2;fontSize=18;fillColor=#f9f7ed;strokeColor=#36393d;fontFamily=OPPO Sans;" parent="1" vertex="1">
          <mxGeometry x="340" y="240" width="217.5" height="120" as="geometry" />
        </mxCell>
        <mxCell id="YTkRFg68Y94UzHcE4enO-37" value="win 版的 JVM" style="ellipse;sketch=1;curveFitting=1;jiggle=1;fontSize=18;fillColor=#ffcc99;strokeColor=#36393d;fontFamily=OPPO Sans;" parent="1" vertex="1">
          <mxGeometry x="367.5" y="262" width="162.5" height="60" as="geometry" />
        </mxCell>
        <mxCell id="YTkRFg68Y94UzHcE4enO-38" value="Windows 系统" style="text;align=center;verticalAlign=middle;rounded=0;sketch=1;curveFitting=1;jiggle=2;fontSize=20;fontFamily=OPPO Sans;fontStyle=1;" parent="1" vertex="1">
          <mxGeometry x="380.25" y="325" width="137" height="30" as="geometry" />
        </mxCell>
        <mxCell id="YTkRFg68Y94UzHcE4enO-39" value="" style="rounded=1;sketch=1;curveFitting=1;jiggle=2;fontSize=18;fillColor=#f9f7ed;strokeColor=#36393d;fontFamily=OPPO Sans;" parent="1" vertex="1">
          <mxGeometry x="640" y="240" width="217.5" height="120" as="geometry" />
        </mxCell>
        <mxCell id="YTkRFg68Y94UzHcE4enO-40" value="win 版的 JVM" style="ellipse;sketch=1;curveFitting=1;jiggle=1;fontSize=18;fillColor=#ffcc99;strokeColor=#36393d;fontFamily=OPPO Sans;" parent="1" vertex="1">
          <mxGeometry x="667.5" y="262" width="162.5" height="60" as="geometry" />
        </mxCell>
        <mxCell id="YTkRFg68Y94UzHcE4enO-41" value="Windows 系统" style="text;align=center;verticalAlign=middle;rounded=0;sketch=1;curveFitting=1;jiggle=2;fontSize=20;fontFamily=OPPO Sans;fontStyle=1;" parent="1" vertex="1">
          <mxGeometry x="680.25" y="325" width="137" height="30" as="geometry" />
        </mxCell>
      </root>
    </mxGraphModel>
  </diagram>
  <diagram id="tEfCL8KK0o5otPX19SOK" name="compilation-java">
    <mxGraphModel dx="1050" dy="669" grid="1" gridSize="10" guides="1" tooltips="1" connect="1" arrows="1" fold="1" page="1" pageScale="1" pageWidth="291" pageHeight="413" math="0" shadow="0">
      <root>
        <mxCell id="0" />
        <mxCell id="1" parent="0" />
        <mxCell id="xbfIvOutNMYY6fL1Sl1d-1" value="" style="edgeStyle=orthogonalEdgeStyle;rounded=0;orthogonalLoop=1;jettySize=auto;entryX=0;entryY=0.5;entryDx=0;entryDy=0;fontFamily=OPPO Sans;fontSize=18;fontColor=default;sketch=1;curveFitting=1;jiggle=1;fillColor=#f5f5f5;strokeColor=#666666;" parent="1" source="xbfIvOutNMYY6fL1Sl1d-4" target="xbfIvOutNMYY6fL1Sl1d-8" edge="1">
          <mxGeometry relative="1" as="geometry" />
        </mxCell>
        <mxCell id="xbfIvOutNMYY6fL1Sl1d-2" value="编译程序" style="edgeLabel;align=center;verticalAlign=middle;resizable=0;points=[];hachureGap=4;strokeColor=default;fontFamily=OPPO Sans;fontSize=18;fontColor=default;fillColor=default;" parent="xbfIvOutNMYY6fL1Sl1d-1" vertex="1" connectable="0">
          <mxGeometry x="-0.0293" relative="1" as="geometry">
            <mxPoint y="-15" as="offset" />
          </mxGeometry>
        </mxCell>
        <mxCell id="xbfIvOutNMYY6fL1Sl1d-3" value="使用 javac.exe" style="edgeLabel;align=center;verticalAlign=middle;resizable=0;points=[];hachureGap=4;strokeColor=default;fontFamily=OPPO Sans;fontSize=18;fontColor=default;fillColor=default;" parent="xbfIvOutNMYY6fL1Sl1d-1" vertex="1" connectable="0">
          <mxGeometry x="-0.036" relative="1" as="geometry">
            <mxPoint y="15" as="offset" />
          </mxGeometry>
        </mxCell>
        <mxCell id="xbfIvOutNMYY6fL1Sl1d-4" value="Java 源文件" style="shape=document;boundedLbl=1;hachureGap=4;strokeColor=#6c8ebf;align=center;verticalAlign=middle;fontFamily=OPPO Sans;fontSize=18;fillColor=#dae8fc;perimeter=rectanglePerimeter;sketch=1;curveFitting=1;jiggle=2;" parent="1" vertex="1">
          <mxGeometry x="40" y="145" width="120" height="70" as="geometry" />
        </mxCell>
        <mxCell id="xbfIvOutNMYY6fL1Sl1d-5" value="" style="edgeStyle=orthogonalEdgeStyle;rounded=0;orthogonalLoop=1;jettySize=auto;exitX=1;exitY=0.5;exitDx=0;exitDy=0;entryX=0;entryY=0.5;entryDx=0;entryDy=0;fontFamily=OPPO Sans;fontSize=18;fontColor=default;sketch=1;curveFitting=1;jiggle=1;fillColor=#f5f5f5;strokeColor=#666666;" parent="1" source="xbfIvOutNMYY6fL1Sl1d-8" target="xbfIvOutNMYY6fL1Sl1d-10" edge="1">
          <mxGeometry relative="1" as="geometry" />
        </mxCell>
        <mxCell id="xbfIvOutNMYY6fL1Sl1d-6" value="启动 JVM" style="edgeLabel;align=center;verticalAlign=middle;resizable=0;points=[];hachureGap=4;strokeColor=default;fontFamily=OPPO Sans;fontSize=18;fontColor=default;fillColor=default;" parent="xbfIvOutNMYY6fL1Sl1d-5" vertex="1" connectable="0">
          <mxGeometry x="-0.184" y="2" relative="1" as="geometry">
            <mxPoint x="11" y="-13" as="offset" />
          </mxGeometry>
        </mxCell>
        <mxCell id="xbfIvOutNMYY6fL1Sl1d-7" value="使用 java.exe" style="edgeLabel;align=center;verticalAlign=middle;resizable=0;points=[];hachureGap=4;strokeColor=default;fontFamily=OPPO Sans;fontSize=18;fontColor=default;fillColor=default;" parent="xbfIvOutNMYY6fL1Sl1d-5" vertex="1" connectable="0">
          <mxGeometry x="-0.0942" y="1" relative="1" as="geometry">
            <mxPoint x="5" y="16" as="offset" />
          </mxGeometry>
        </mxCell>
        <mxCell id="xbfIvOutNMYY6fL1Sl1d-8" value="字节码文件" style="fontSize=18;fontFamily=OPPO Sans;hachureGap=4;fillColor=#d5e8d4;strokeColor=#82b366;sketch=1;curveFitting=1;jiggle=2;" parent="1" vertex="1">
          <mxGeometry x="291" y="150" width="120" height="60" as="geometry" />
        </mxCell>
        <mxCell id="xbfIvOutNMYY6fL1Sl1d-9" value="" style="edgeStyle=orthogonalEdgeStyle;rounded=0;orthogonalLoop=1;jettySize=auto;entryX=0;entryY=0.5;entryDx=0;entryDy=0;fontFamily=OPPO Sans;fontSize=18;fontColor=default;sketch=1;curveFitting=1;jiggle=1;fillColor=#f5f5f5;strokeColor=#666666;" parent="1" source="xbfIvOutNMYY6fL1Sl1d-10" target="xbfIvOutNMYY6fL1Sl1d-11" edge="1">
          <mxGeometry relative="1" as="geometry" />
        </mxCell>
        <mxCell id="xbfIvOutNMYY6fL1Sl1d-10" value="JVM" style="fontSize=18;fontFamily=OPPO Sans;hachureGap=4;fillColor=#ffe6cc;strokeColor=#d79b00;sketch=1;curveFitting=1;jiggle=2;" parent="1" vertex="1">
          <mxGeometry x="530" y="150" width="120" height="60" as="geometry" />
        </mxCell>
        <mxCell id="xbfIvOutNMYY6fL1Sl1d-11" value="程序运行结果" style="ellipse;fontSize=18;fontFamily=OPPO Sans;hachureGap=4;fillColor=#f8cecc;strokeColor=#b85450;sketch=1;curveFitting=1;jiggle=2;" parent="1" vertex="1">
          <mxGeometry x="720" y="122.5" width="115" height="115" as="geometry" />
        </mxCell>
        <mxCell id="xbfIvOutNMYY6fL1Sl1d-12" value="HelloWorld.java" style="shape=note;backgroundOutline=1;fontColor=#000000;darkOpacity=0.05;fillColor=#FFF9B2;strokeColor=none;fillStyle=solid;direction=west;gradientDirection=north;gradientColor=#FFF2A1;shadow=1;size=11;pointerEvents=1;hachureGap=4;align=center;verticalAlign=middle;fontFamily=OPPO Sans;fontSize=18;sketch=1;curveFitting=1;jiggle=2;" parent="1" vertex="1">
          <mxGeometry x="25" y="250" width="150" height="40" as="geometry" />
        </mxCell>
        <mxCell id="xbfIvOutNMYY6fL1Sl1d-13" value="HelloWorld.class" style="shape=note;backgroundOutline=1;fontColor=#000000;darkOpacity=0.05;fillColor=#FFF9B2;strokeColor=none;fillStyle=solid;direction=west;gradientDirection=north;gradientColor=#FFF2A1;shadow=1;size=11;pointerEvents=1;hachureGap=4;align=center;verticalAlign=middle;fontFamily=OPPO Sans;fontSize=18;sketch=1;curveFitting=1;jiggle=2;" parent="1" vertex="1">
          <mxGeometry x="271" y="250" width="160" height="40" as="geometry" />
        </mxCell>
        <mxCell id="xbfIvOutNMYY6fL1Sl1d-14" value="" style="edgeStyle=orthogonalEdgeStyle;rounded=0;orthogonalLoop=1;jettySize=auto;entryX=0.5;entryY=1;entryDx=0;entryDy=0;entryPerimeter=0;fontFamily=OPPO Sans;fontSize=18;fontColor=default;dashed=1;endArrow=none;endFill=0;sketch=1;curveFitting=1;jiggle=1;fillColor=#f5f5f5;strokeColor=#666666;" parent="1" source="xbfIvOutNMYY6fL1Sl1d-4" target="xbfIvOutNMYY6fL1Sl1d-12" edge="1">
          <mxGeometry relative="1" as="geometry" />
        </mxCell>
        <mxCell id="xbfIvOutNMYY6fL1Sl1d-15" value="" style="edgeStyle=orthogonalEdgeStyle;rounded=0;orthogonalLoop=1;jettySize=auto;entryX=0.5;entryY=1;entryDx=0;entryDy=0;entryPerimeter=0;fontFamily=OPPO Sans;fontSize=18;fontColor=default;dashed=1;endArrow=none;endFill=0;sketch=1;curveFitting=1;jiggle=1;fillColor=#f5f5f5;strokeColor=#666666;" parent="1" source="xbfIvOutNMYY6fL1Sl1d-8" target="xbfIvOutNMYY6fL1Sl1d-13" edge="1">
          <mxGeometry relative="1" as="geometry" />
        </mxCell>
        <mxCell id="xbfIvOutNMYY6fL1Sl1d-16" value="" style="edgeStyle=orthogonalEdgeStyle;rounded=0;orthogonalLoop=1;jettySize=auto;fontFamily=OPPO Sans;fontSize=18;fontColor=default;endArrow=none;endFill=0;dashed=1;sketch=1;curveFitting=1;jiggle=1;fillColor=#f5f5f5;strokeColor=#666666;" parent="1" source="xbfIvOutNMYY6fL1Sl1d-17" edge="1">
          <mxGeometry relative="1" as="geometry">
            <mxPoint x="470" y="150" as="targetPoint" />
          </mxGeometry>
        </mxCell>
        <mxCell id="xbfIvOutNMYY6fL1Sl1d-17" value="把字节码文件加载进JVM" style="shape=note;backgroundOutline=1;fontColor=#000000;darkOpacity=0.05;fillColor=#FFF9B2;strokeColor=none;fillStyle=solid;direction=west;gradientDirection=north;gradientColor=#FFF2A1;shadow=1;size=10;pointerEvents=1;hachureGap=4;align=center;verticalAlign=middle;fontFamily=OPPO Sans;fontSize=18;sketch=1;curveFitting=1;jiggle=2;" parent="1" vertex="1">
          <mxGeometry x="360" y="70" width="220" height="40" as="geometry" />
        </mxCell>
      </root>
    </mxGraphModel>
  </diagram>
  <diagram id="lSjEnRyWYSX5353D730i" name="switchs">
    <mxGraphModel dx="1050" dy="669" grid="1" gridSize="10" guides="1" tooltips="1" connect="1" arrows="1" fold="1" page="1" pageScale="1" pageWidth="291" pageHeight="413" math="0" shadow="0">
      <root>
        <mxCell id="0" />
        <mxCell id="1" parent="0" />
        <mxCell id="IzWrZg9WbQ20ziRJBbIq-8" value="" style="group;" parent="1" vertex="1" connectable="0">
          <mxGeometry x="30" y="40" width="30" height="120" as="geometry" />
        </mxCell>
        <mxCell id="IzWrZg9WbQ20ziRJBbIq-3" value="" style="shape=mxgraph.electrical.electro-mechanical.switchDisconnector;aspect=fixed;elSwitchState=off;hachureGap=4;strokeColor=default;align=center;verticalAlign=middle;fontFamily=OPPO Sans;fontSize=18;fontColor=default;fillColor=default;direction=south;" parent="IzWrZg9WbQ20ziRJBbIq-8" vertex="1">
          <mxGeometry x="10" width="20" height="75" as="geometry" />
        </mxCell>
        <mxCell id="IzWrZg9WbQ20ziRJBbIq-5" value="1" style="text;strokeColor=none;align=center;fillColor=none;verticalAlign=middle;rounded=0;fontFamily=OPPO Sans;fontSize=18;fontColor=default;" parent="IzWrZg9WbQ20ziRJBbIq-8" vertex="1">
          <mxGeometry y="80" width="30" height="40" as="geometry" />
        </mxCell>
        <mxCell id="IzWrZg9WbQ20ziRJBbIq-9" value="" style="group;" parent="1" vertex="1" connectable="0">
          <mxGeometry x="69" y="40" width="32" height="120" as="geometry" />
        </mxCell>
        <mxCell id="IzWrZg9WbQ20ziRJBbIq-4" value="" style="shape=mxgraph.electrical.electro-mechanical.switchDisconnector;aspect=fixed;elSwitchState=on;hachureGap=4;strokeColor=default;align=center;verticalAlign=middle;fontFamily=OPPO Sans;fontSize=18;fontColor=default;fillColor=default;direction=south;" parent="IzWrZg9WbQ20ziRJBbIq-9" vertex="1">
          <mxGeometry x="12" width="20" height="75" as="geometry" />
        </mxCell>
        <mxCell id="IzWrZg9WbQ20ziRJBbIq-7" value="0" style="text;strokeColor=none;align=center;fillColor=none;verticalAlign=middle;rounded=0;fontFamily=OPPO Sans;fontSize=18;fontColor=default;" parent="IzWrZg9WbQ20ziRJBbIq-9" vertex="1">
          <mxGeometry y="80" width="30" height="40" as="geometry" />
        </mxCell>
        <mxCell id="IzWrZg9WbQ20ziRJBbIq-10" value="" style="group;" parent="1" vertex="1" connectable="0">
          <mxGeometry x="110" y="40" width="30" height="120" as="geometry" />
        </mxCell>
        <mxCell id="IzWrZg9WbQ20ziRJBbIq-11" value="" style="shape=mxgraph.electrical.electro-mechanical.switchDisconnector;aspect=fixed;elSwitchState=off;hachureGap=4;strokeColor=default;align=center;verticalAlign=middle;fontFamily=OPPO Sans;fontSize=18;fontColor=default;fillColor=default;direction=south;" parent="IzWrZg9WbQ20ziRJBbIq-10" vertex="1">
          <mxGeometry x="10" width="20" height="75" as="geometry" />
        </mxCell>
        <mxCell id="IzWrZg9WbQ20ziRJBbIq-12" value="1" style="text;strokeColor=none;align=center;fillColor=none;verticalAlign=middle;rounded=0;fontFamily=OPPO Sans;fontSize=18;fontColor=default;" parent="IzWrZg9WbQ20ziRJBbIq-10" vertex="1">
          <mxGeometry y="80" width="30" height="40" as="geometry" />
        </mxCell>
        <mxCell id="IzWrZg9WbQ20ziRJBbIq-13" value="" style="group;" parent="1" vertex="1" connectable="0">
          <mxGeometry x="150" y="40" width="30" height="120" as="geometry" />
        </mxCell>
        <mxCell id="IzWrZg9WbQ20ziRJBbIq-14" value="" style="shape=mxgraph.electrical.electro-mechanical.switchDisconnector;aspect=fixed;elSwitchState=off;hachureGap=4;strokeColor=default;align=center;verticalAlign=middle;fontFamily=OPPO Sans;fontSize=18;fontColor=default;fillColor=default;direction=south;" parent="IzWrZg9WbQ20ziRJBbIq-13" vertex="1">
          <mxGeometry x="10" width="20" height="75" as="geometry" />
        </mxCell>
        <mxCell id="IzWrZg9WbQ20ziRJBbIq-15" value="1" style="text;strokeColor=none;align=center;fillColor=none;verticalAlign=middle;rounded=0;fontFamily=OPPO Sans;fontSize=18;fontColor=default;" parent="IzWrZg9WbQ20ziRJBbIq-13" vertex="1">
          <mxGeometry y="80" width="30" height="40" as="geometry" />
        </mxCell>
        <mxCell id="IzWrZg9WbQ20ziRJBbIq-16" value="" style="group;" parent="1" vertex="1" connectable="0">
          <mxGeometry x="190" y="40" width="32" height="120" as="geometry" />
        </mxCell>
        <mxCell id="IzWrZg9WbQ20ziRJBbIq-17" value="" style="shape=mxgraph.electrical.electro-mechanical.switchDisconnector;aspect=fixed;elSwitchState=on;hachureGap=4;strokeColor=default;align=center;verticalAlign=middle;fontFamily=OPPO Sans;fontSize=18;fontColor=default;fillColor=default;direction=south;" parent="IzWrZg9WbQ20ziRJBbIq-16" vertex="1">
          <mxGeometry x="12" width="20" height="75" as="geometry" />
        </mxCell>
        <mxCell id="IzWrZg9WbQ20ziRJBbIq-18" value="0" style="text;strokeColor=none;align=center;fillColor=none;verticalAlign=middle;rounded=0;fontFamily=OPPO Sans;fontSize=18;fontColor=default;" parent="IzWrZg9WbQ20ziRJBbIq-16" vertex="1">
          <mxGeometry y="80" width="30" height="40" as="geometry" />
        </mxCell>
        <mxCell id="IzWrZg9WbQ20ziRJBbIq-19" value="" style="group;" parent="1" vertex="1" connectable="0">
          <mxGeometry x="231" y="40" width="30" height="120" as="geometry" />
        </mxCell>
        <mxCell id="IzWrZg9WbQ20ziRJBbIq-20" value="" style="shape=mxgraph.electrical.electro-mechanical.switchDisconnector;aspect=fixed;elSwitchState=off;hachureGap=4;strokeColor=default;align=center;verticalAlign=middle;fontFamily=OPPO Sans;fontSize=18;fontColor=default;fillColor=default;direction=south;" parent="IzWrZg9WbQ20ziRJBbIq-19" vertex="1">
          <mxGeometry x="10" width="20" height="75" as="geometry" />
        </mxCell>
        <mxCell id="IzWrZg9WbQ20ziRJBbIq-21" value="1" style="text;strokeColor=none;align=center;fillColor=none;verticalAlign=middle;rounded=0;fontFamily=OPPO Sans;fontSize=18;fontColor=default;" parent="IzWrZg9WbQ20ziRJBbIq-19" vertex="1">
          <mxGeometry y="80" width="30" height="40" as="geometry" />
        </mxCell>
        <mxCell id="IzWrZg9WbQ20ziRJBbIq-22" value="" style="group;" parent="1" vertex="1" connectable="0">
          <mxGeometry x="271" y="40" width="30" height="120" as="geometry" />
        </mxCell>
        <mxCell id="IzWrZg9WbQ20ziRJBbIq-23" value="" style="shape=mxgraph.electrical.electro-mechanical.switchDisconnector;aspect=fixed;elSwitchState=off;hachureGap=4;strokeColor=default;align=center;verticalAlign=middle;fontFamily=OPPO Sans;fontSize=18;fontColor=default;fillColor=default;direction=south;" parent="IzWrZg9WbQ20ziRJBbIq-22" vertex="1">
          <mxGeometry x="10" width="20" height="75" as="geometry" />
        </mxCell>
        <mxCell id="IzWrZg9WbQ20ziRJBbIq-24" value="1" style="text;strokeColor=none;align=center;fillColor=none;verticalAlign=middle;rounded=0;fontFamily=OPPO Sans;fontSize=18;fontColor=default;" parent="IzWrZg9WbQ20ziRJBbIq-22" vertex="1">
          <mxGeometry y="80" width="30" height="40" as="geometry" />
        </mxCell>
        <mxCell id="IzWrZg9WbQ20ziRJBbIq-25" value="" style="group;" parent="1" vertex="1" connectable="0">
          <mxGeometry x="310" y="40" width="32" height="120" as="geometry" />
        </mxCell>
        <mxCell id="IzWrZg9WbQ20ziRJBbIq-26" value="" style="shape=mxgraph.electrical.electro-mechanical.switchDisconnector;aspect=fixed;elSwitchState=on;hachureGap=4;strokeColor=default;align=center;verticalAlign=middle;fontFamily=OPPO Sans;fontSize=18;fontColor=default;fillColor=default;direction=south;" parent="IzWrZg9WbQ20ziRJBbIq-25" vertex="1">
          <mxGeometry x="12" width="20" height="75" as="geometry" />
        </mxCell>
        <mxCell id="IzWrZg9WbQ20ziRJBbIq-27" value="0" style="text;strokeColor=none;align=center;fillColor=none;verticalAlign=middle;rounded=0;fontFamily=OPPO Sans;fontSize=18;fontColor=default;" parent="IzWrZg9WbQ20ziRJBbIq-25" vertex="1">
          <mxGeometry y="80" width="30" height="40" as="geometry" />
        </mxCell>
      </root>
    </mxGraphModel>
  </diagram>
  <diagram id="n5YBOJhujTS5PSWQUBsb" name="binaryToOther">
    <mxGraphModel dx="1050" dy="669" grid="1" gridSize="10" guides="1" tooltips="1" connect="1" arrows="1" fold="1" page="1" pageScale="1" pageWidth="291" pageHeight="413" math="0" shadow="0">
      <root>
        <mxCell id="0" />
        <mxCell id="1" parent="0" />
        <mxCell id="xXUIt0HnAuLyZIz4e1MF-57" value="" style="swimlane;startSize=0;hachureGap=4;strokeColor=#d79b00;align=center;verticalAlign=middle;fontFamily=OPPO Sans;fontSize=18;fillColor=#ffe6cc;sketch=1;curveFitting=1;jiggle=1;" parent="1" vertex="1">
          <mxGeometry x="40" y="40" width="528" height="320" as="geometry">
            <mxRectangle x="40" y="40" width="50" height="40" as="alternateBounds" />
          </mxGeometry>
        </mxCell>
        <mxCell id="xXUIt0HnAuLyZIz4e1MF-58" value="二进制转八进制" style="text;align=center;verticalAlign=middle;resizable=0;points=[];autosize=1;strokeColor=none;fillColor=none;fontFamily=OPPO Sans;fontSize=22;fontColor=default;fontStyle=1;sketch=1;curveFitting=1;jiggle=1;" parent="xXUIt0HnAuLyZIz4e1MF-57" vertex="1">
          <mxGeometry x="179" y="10" width="170" height="40" as="geometry" />
        </mxCell>
        <mxCell id="xXUIt0HnAuLyZIz4e1MF-30" value="" style="edgeStyle=orthogonalEdgeStyle;rounded=0;orthogonalLoop=1;jettySize=auto;exitX=0.5;exitY=1;exitDx=0;exitDy=0;entryX=0.5;entryY=0;entryDx=0;entryDy=0;fontFamily=OPPO Sans;fontSize=18;fontColor=default;sketch=1;curveFitting=1;jiggle=1;" parent="xXUIt0HnAuLyZIz4e1MF-57" source="xXUIt0HnAuLyZIz4e1MF-8" target="xXUIt0HnAuLyZIz4e1MF-15" edge="1">
          <mxGeometry relative="1" as="geometry">
            <Array as="points">
              <mxPoint x="33.5" y="218" />
              <mxPoint x="203.5" y="218" />
            </Array>
          </mxGeometry>
        </mxCell>
        <mxCell id="xXUIt0HnAuLyZIz4e1MF-8" value="010" style="text;strokeColor=none;align=center;fillColor=none;verticalAlign=middle;rounded=0;fontFamily=OPPO Sans;fontSize=18;fontColor=default;sketch=1;curveFitting=1;jiggle=1;" parent="xXUIt0HnAuLyZIz4e1MF-57" vertex="1">
          <mxGeometry x="15.5" y="166" width="35" height="25" as="geometry" />
        </mxCell>
        <mxCell id="xXUIt0HnAuLyZIz4e1MF-50" value="" style="edgeStyle=orthogonalEdgeStyle;rounded=0;orthogonalLoop=1;jettySize=auto;entryX=0.5;entryY=0;entryDx=0;entryDy=0;fontFamily=OPPO Sans;fontSize=18;fontColor=default;sketch=1;curveFitting=1;jiggle=1;" parent="xXUIt0HnAuLyZIz4e1MF-57" source="xXUIt0HnAuLyZIz4e1MF-9" target="xXUIt0HnAuLyZIz4e1MF-15" edge="1">
          <mxGeometry relative="1" as="geometry">
            <Array as="points">
              <mxPoint x="372.5" y="218" />
              <mxPoint x="203.5" y="218" />
            </Array>
          </mxGeometry>
        </mxCell>
        <mxCell id="xXUIt0HnAuLyZIz4e1MF-9" value="110" style="text;strokeColor=none;align=center;fillColor=none;verticalAlign=middle;rounded=0;fontFamily=OPPO Sans;fontSize=18;fontColor=default;sketch=1;curveFitting=1;jiggle=1;" parent="xXUIt0HnAuLyZIz4e1MF-57" vertex="1">
          <mxGeometry x="355.5" y="166" width="34" height="25" as="geometry" />
        </mxCell>
        <mxCell id="xXUIt0HnAuLyZIz4e1MF-29" value="" style="edgeStyle=orthogonalEdgeStyle;rounded=0;orthogonalLoop=1;jettySize=auto;exitX=0.5;exitY=1;exitDx=0;exitDy=0;entryX=0.5;entryY=0;entryDx=0;entryDy=0;fontFamily=OPPO Sans;fontSize=18;fontColor=default;sketch=1;curveFitting=1;jiggle=1;" parent="xXUIt0HnAuLyZIz4e1MF-57" source="xXUIt0HnAuLyZIz4e1MF-10" target="xXUIt0HnAuLyZIz4e1MF-15" edge="1">
          <mxGeometry relative="1" as="geometry" />
        </mxCell>
        <mxCell id="xXUIt0HnAuLyZIz4e1MF-10" value="110" style="text;strokeColor=none;align=center;fillColor=none;verticalAlign=middle;rounded=0;fontFamily=OPPO Sans;fontSize=18;fontColor=default;sketch=1;curveFitting=1;jiggle=1;" parent="xXUIt0HnAuLyZIz4e1MF-57" vertex="1">
          <mxGeometry x="186.5" y="166" width="34" height="25" as="geometry" />
        </mxCell>
        <mxCell id="xXUIt0HnAuLyZIz4e1MF-15" value="266" style="text;strokeColor=none;align=center;fillColor=none;verticalAlign=middle;rounded=0;fontFamily=OPPO Sans;fontSize=18;fontColor=default;sketch=1;curveFitting=1;jiggle=1;" parent="xXUIt0HnAuLyZIz4e1MF-57" vertex="1">
          <mxGeometry x="188.5" y="253" width="30" height="20" as="geometry" />
        </mxCell>
        <mxCell id="xXUIt0HnAuLyZIz4e1MF-23" value="" style="group;fontSize=18;fontFamily=OPPO Sans;sketch=1;curveFitting=1;jiggle=1;" parent="xXUIt0HnAuLyZIz4e1MF-57" vertex="1" connectable="0">
          <mxGeometry x="158.5" y="93" width="30" height="20" as="geometry" />
        </mxCell>
        <mxCell id="xXUIt0HnAuLyZIz4e1MF-4" value="" style="endArrow=none;rounded=0;fontFamily=OPPO Sans;fontSize=18;fontColor=default;entryX=0.348;entryY=0.985;entryDx=0;entryDy=0;entryPerimeter=0;sketch=1;curveFitting=1;jiggle=1;" parent="xXUIt0HnAuLyZIz4e1MF-23" edge="1">
          <mxGeometry width="50" height="50" relative="1" as="geometry">
            <mxPoint x="5" y="20" as="sourcePoint" />
            <mxPoint x="25" y="20" as="targetPoint" />
          </mxGeometry>
        </mxCell>
        <mxCell id="xXUIt0HnAuLyZIz4e1MF-22" value="010" style="text;strokeColor=none;align=center;fillColor=none;verticalAlign=middle;rounded=0;fontFamily=OPPO Sans;fontSize=18;fontColor=default;sketch=1;curveFitting=1;jiggle=1;" parent="xXUIt0HnAuLyZIz4e1MF-23" vertex="1">
          <mxGeometry width="30" height="20" as="geometry" />
        </mxCell>
        <mxCell id="xXUIt0HnAuLyZIz4e1MF-24" value="" style="group;fontSize=18;fontFamily=OPPO Sans;sketch=1;curveFitting=1;jiggle=1;" parent="xXUIt0HnAuLyZIz4e1MF-57" vertex="1" connectable="0">
          <mxGeometry x="188.5" y="93" width="30" height="20" as="geometry" />
        </mxCell>
        <mxCell id="xXUIt0HnAuLyZIz4e1MF-5" value="" style="endArrow=none;rounded=0;fontFamily=OPPO Sans;fontSize=18;fontColor=default;entryX=0.348;entryY=0.985;entryDx=0;entryDy=0;entryPerimeter=0;sketch=1;curveFitting=1;jiggle=1;" parent="xXUIt0HnAuLyZIz4e1MF-24" edge="1">
          <mxGeometry width="50" height="50" relative="1" as="geometry">
            <mxPoint x="5" y="20" as="sourcePoint" />
            <mxPoint x="25" y="20" as="targetPoint" />
          </mxGeometry>
        </mxCell>
        <mxCell id="xXUIt0HnAuLyZIz4e1MF-21" value="110" style="text;strokeColor=none;align=center;fillColor=none;verticalAlign=middle;rounded=0;fontFamily=OPPO Sans;fontSize=18;fontColor=default;sketch=1;curveFitting=1;jiggle=1;" parent="xXUIt0HnAuLyZIz4e1MF-24" vertex="1">
          <mxGeometry width="30" height="20" as="geometry" />
        </mxCell>
        <mxCell id="xXUIt0HnAuLyZIz4e1MF-25" value="" style="group;fontSize=18;fontFamily=OPPO Sans;sketch=1;curveFitting=1;jiggle=1;" parent="xXUIt0HnAuLyZIz4e1MF-57" vertex="1" connectable="0">
          <mxGeometry x="218.5" y="93" width="30" height="20" as="geometry" />
        </mxCell>
        <mxCell id="xXUIt0HnAuLyZIz4e1MF-6" value="" style="endArrow=none;rounded=0;fontFamily=OPPO Sans;fontSize=18;fontColor=default;entryX=0.348;entryY=0.985;entryDx=0;entryDy=0;entryPerimeter=0;sketch=1;curveFitting=1;jiggle=1;" parent="xXUIt0HnAuLyZIz4e1MF-25" edge="1">
          <mxGeometry width="50" height="50" relative="1" as="geometry">
            <mxPoint x="5" y="20" as="sourcePoint" />
            <mxPoint x="25" y="20" as="targetPoint" />
          </mxGeometry>
        </mxCell>
        <mxCell id="xXUIt0HnAuLyZIz4e1MF-20" value="110" style="text;strokeColor=none;align=center;fillColor=none;verticalAlign=middle;rounded=0;fontFamily=OPPO Sans;fontSize=18;fontColor=default;sketch=1;curveFitting=1;jiggle=1;" parent="xXUIt0HnAuLyZIz4e1MF-25" vertex="1">
          <mxGeometry width="30" height="20" as="geometry" />
        </mxCell>
        <mxCell id="xXUIt0HnAuLyZIz4e1MF-26" value="" style="edgeStyle=orthogonalEdgeStyle;rounded=0;orthogonalLoop=1;jettySize=auto;exitX=0.5;exitY=1;exitDx=0;exitDy=0;entryX=0.5;entryY=0;entryDx=0;entryDy=0;fontFamily=OPPO Sans;fontSize=18;fontColor=default;sketch=1;curveFitting=1;jiggle=1;" parent="xXUIt0HnAuLyZIz4e1MF-57" source="xXUIt0HnAuLyZIz4e1MF-22" target="xXUIt0HnAuLyZIz4e1MF-8" edge="1">
          <mxGeometry relative="1" as="geometry" />
        </mxCell>
        <mxCell id="xXUIt0HnAuLyZIz4e1MF-27" value="" style="edgeStyle=orthogonalEdgeStyle;rounded=0;orthogonalLoop=1;jettySize=auto;exitX=0.5;exitY=1;exitDx=0;exitDy=0;entryX=0.5;entryY=0;entryDx=0;entryDy=0;fontFamily=OPPO Sans;fontSize=18;fontColor=default;sketch=1;curveFitting=1;jiggle=1;" parent="xXUIt0HnAuLyZIz4e1MF-57" source="xXUIt0HnAuLyZIz4e1MF-21" target="xXUIt0HnAuLyZIz4e1MF-10" edge="1">
          <mxGeometry relative="1" as="geometry" />
        </mxCell>
        <mxCell id="xXUIt0HnAuLyZIz4e1MF-33" value="十进制：2" style="shape=note;backgroundOutline=1;fontColor=#000000;darkOpacity=0.05;fillColor=#FFF9B2;strokeColor=none;fillStyle=solid;direction=west;gradientDirection=north;gradientColor=#FFF2A1;shadow=1;size=8;pointerEvents=1;hachureGap=4;align=center;verticalAlign=middle;fontFamily=OPPO Sans;fontSize=18;sketch=1;curveFitting=1;jiggle=0;" parent="xXUIt0HnAuLyZIz4e1MF-57" vertex="1">
          <mxGeometry x="76.5" y="169" width="92" height="27" as="geometry" />
        </mxCell>
        <mxCell id="xXUIt0HnAuLyZIz4e1MF-37" value="十进制：6" style="shape=note;backgroundOutline=1;fontColor=#000000;darkOpacity=0.05;fillColor=#FFF9B2;strokeColor=none;fillStyle=solid;direction=west;gradientDirection=north;gradientColor=#FFF2A1;shadow=1;size=8;pointerEvents=1;hachureGap=4;align=center;verticalAlign=middle;fontFamily=OPPO Sans;fontSize=18;sketch=1;curveFitting=1;jiggle=0;" parent="xXUIt0HnAuLyZIz4e1MF-57" vertex="1">
          <mxGeometry x="248.5" y="169" width="92" height="27" as="geometry" />
        </mxCell>
        <mxCell id="xXUIt0HnAuLyZIz4e1MF-38" value="十进制：6" style="shape=note;backgroundOutline=1;fontColor=#000000;darkOpacity=0.05;fillColor=#FFF9B2;strokeColor=none;fillStyle=solid;direction=west;gradientDirection=north;gradientColor=#FFF2A1;shadow=1;size=8;pointerEvents=1;hachureGap=4;align=center;verticalAlign=middle;fontFamily=OPPO Sans;fontSize=18;sketch=1;curveFitting=1;jiggle=0;" parent="xXUIt0HnAuLyZIz4e1MF-57" vertex="1">
          <mxGeometry x="420.5" y="169" width="92" height="27" as="geometry" />
        </mxCell>
        <mxCell id="xXUIt0HnAuLyZIz4e1MF-43" value="" style="edgeStyle=orthogonalEdgeStyle;rounded=0;orthogonalLoop=1;jettySize=auto;entryX=0;entryY=0;entryDx=92;entryDy=17.5;entryPerimeter=0;fontFamily=OPPO Sans;fontSize=18;fontColor=default;dashed=1;endArrow=none;endFill=0;sketch=1;curveFitting=1;jiggle=1;" parent="xXUIt0HnAuLyZIz4e1MF-57" source="xXUIt0HnAuLyZIz4e1MF-10" target="xXUIt0HnAuLyZIz4e1MF-37" edge="1">
          <mxGeometry relative="1" as="geometry" />
        </mxCell>
        <mxCell id="xXUIt0HnAuLyZIz4e1MF-46" value="" style="edgeStyle=orthogonalEdgeStyle;rounded=0;orthogonalLoop=1;jettySize=auto;entryX=0;entryY=0;entryDx=92;entryDy=17.5;entryPerimeter=0;fontFamily=OPPO Sans;fontSize=18;fontColor=default;endArrow=none;endFill=0;dashed=1;sketch=1;curveFitting=1;jiggle=1;" parent="xXUIt0HnAuLyZIz4e1MF-57" source="xXUIt0HnAuLyZIz4e1MF-8" target="xXUIt0HnAuLyZIz4e1MF-33" edge="1">
          <mxGeometry relative="1" as="geometry" />
        </mxCell>
        <mxCell id="xXUIt0HnAuLyZIz4e1MF-48" value="" style="edgeStyle=orthogonalEdgeStyle;rounded=0;orthogonalLoop=1;jettySize=auto;exitX=0.5;exitY=1;exitDx=0;exitDy=0;entryX=0.5;entryY=0;entryDx=0;entryDy=0;fontFamily=OPPO Sans;fontSize=18;fontColor=default;sketch=1;curveFitting=1;jiggle=1;" parent="xXUIt0HnAuLyZIz4e1MF-57" source="xXUIt0HnAuLyZIz4e1MF-20" target="xXUIt0HnAuLyZIz4e1MF-9" edge="1">
          <mxGeometry relative="1" as="geometry" />
        </mxCell>
        <mxCell id="xXUIt0HnAuLyZIz4e1MF-51" value="" style="edgeStyle=orthogonalEdgeStyle;rounded=0;orthogonalLoop=1;jettySize=auto;entryX=0;entryY=0;entryDx=92;entryDy=17.5;entryPerimeter=0;fontFamily=OPPO Sans;fontSize=18;fontColor=default;dashed=1;endArrow=none;endFill=0;sketch=1;curveFitting=1;jiggle=1;" parent="xXUIt0HnAuLyZIz4e1MF-57" source="xXUIt0HnAuLyZIz4e1MF-9" target="xXUIt0HnAuLyZIz4e1MF-38" edge="1">
          <mxGeometry relative="1" as="geometry" />
        </mxCell>
        <mxCell id="xXUIt0HnAuLyZIz4e1MF-54" value="" style="edgeStyle=orthogonalEdgeStyle;rounded=0;orthogonalLoop=1;jettySize=auto;entryX=0;entryY=0.5;entryDx=0;entryDy=0;fontFamily=OPPO Sans;fontSize=18;fontColor=default;endArrow=none;endFill=0;dashed=1;sketch=1;curveFitting=1;jiggle=1;" parent="xXUIt0HnAuLyZIz4e1MF-57" source="xXUIt0HnAuLyZIz4e1MF-53" target="xXUIt0HnAuLyZIz4e1MF-22" edge="1">
          <mxGeometry relative="1" as="geometry" />
        </mxCell>
        <mxCell id="xXUIt0HnAuLyZIz4e1MF-53" value="二进制" style="shape=note;backgroundOutline=1;fontColor=#000000;darkOpacity=0.05;fillColor=#FFF9B2;strokeColor=none;fillStyle=solid;direction=west;gradientDirection=north;gradientColor=#FFF2A1;shadow=1;size=10;pointerEvents=1;hachureGap=4;align=center;verticalAlign=middle;fontFamily=OPPO Sans;fontSize=18;sketch=1;curveFitting=1;jiggle=1;" parent="xXUIt0HnAuLyZIz4e1MF-57" vertex="1">
          <mxGeometry x="23.5" y="83" width="80" height="40" as="geometry" />
        </mxCell>
        <mxCell id="xXUIt0HnAuLyZIz4e1MF-56" value="" style="edgeStyle=orthogonalEdgeStyle;rounded=0;orthogonalLoop=1;jettySize=auto;entryX=0;entryY=0.5;entryDx=0;entryDy=0;fontFamily=OPPO Sans;fontSize=18;fontColor=default;endArrow=none;endFill=0;dashed=1;sketch=1;curveFitting=1;jiggle=1;" parent="xXUIt0HnAuLyZIz4e1MF-57" source="xXUIt0HnAuLyZIz4e1MF-55" target="xXUIt0HnAuLyZIz4e1MF-15" edge="1">
          <mxGeometry relative="1" as="geometry" />
        </mxCell>
        <mxCell id="xXUIt0HnAuLyZIz4e1MF-55" value="八进制" style="shape=note;backgroundOutline=1;fontColor=#000000;darkOpacity=0.05;fillColor=#FFF9B2;strokeColor=none;fillStyle=solid;direction=west;gradientDirection=north;gradientColor=#FFF2A1;shadow=1;size=10;pointerEvents=1;hachureGap=4;align=center;verticalAlign=middle;fontFamily=OPPO Sans;fontSize=18;sketch=1;curveFitting=1;jiggle=1;" parent="xXUIt0HnAuLyZIz4e1MF-57" vertex="1">
          <mxGeometry x="33.5" y="243" width="80" height="40" as="geometry" />
        </mxCell>
        <mxCell id="xXUIt0HnAuLyZIz4e1MF-90" value="" style="swimlane;startSize=0;hachureGap=4;strokeColor=#d79b00;align=center;verticalAlign=middle;fontFamily=OPPO Sans;fontSize=18;fillColor=#ffe6cc;sketch=1;curveFitting=1;jiggle=1;" parent="1" vertex="1">
          <mxGeometry x="568" y="40" width="462" height="320" as="geometry">
            <mxRectangle x="40" y="40" width="50" height="40" as="alternateBounds" />
          </mxGeometry>
        </mxCell>
        <mxCell id="xXUIt0HnAuLyZIz4e1MF-91" value="二进制转十六进制" style="text;align=center;verticalAlign=middle;resizable=0;points=[];autosize=1;strokeColor=none;fillColor=none;fontFamily=OPPO Sans;fontSize=22;fontColor=default;fontStyle=1;sketch=1;curveFitting=1;jiggle=1;" parent="xXUIt0HnAuLyZIz4e1MF-90" vertex="1">
          <mxGeometry x="169" y="10" width="190" height="40" as="geometry" />
        </mxCell>
        <mxCell id="xXUIt0HnAuLyZIz4e1MF-131" value="" style="edgeStyle=orthogonalEdgeStyle;rounded=0;orthogonalLoop=1;jettySize=auto;entryX=0.5;entryY=0;entryDx=0;entryDy=0;fontFamily=OPPO Sans;fontSize=18;fontColor=default;sketch=1;curveFitting=1;jiggle=1;" parent="xXUIt0HnAuLyZIz4e1MF-90" source="xXUIt0HnAuLyZIz4e1MF-93" target="xXUIt0HnAuLyZIz4e1MF-98" edge="1">
          <mxGeometry relative="1" as="geometry">
            <Array as="points">
              <mxPoint x="96" y="198" />
              <mxPoint x="204" y="198" />
            </Array>
          </mxGeometry>
        </mxCell>
        <mxCell id="xXUIt0HnAuLyZIz4e1MF-93" value="1011" style="text;strokeColor=none;align=center;fillColor=none;verticalAlign=middle;rounded=0;fontFamily=OPPO Sans;fontSize=18;fontColor=default;sketch=1;curveFitting=1;jiggle=1;" parent="xXUIt0HnAuLyZIz4e1MF-90" vertex="1">
          <mxGeometry x="78.5" y="145" width="35" height="25" as="geometry" />
        </mxCell>
        <mxCell id="xXUIt0HnAuLyZIz4e1MF-124" value="" style="edgeStyle=orthogonalEdgeStyle;rounded=0;orthogonalLoop=1;jettySize=auto;exitX=0.5;exitY=1;exitDx=0;exitDy=0;entryX=0.5;entryY=0;entryDx=0;entryDy=0;fontFamily=OPPO Sans;fontSize=18;fontColor=default;sketch=1;curveFitting=1;jiggle=1;" parent="xXUIt0HnAuLyZIz4e1MF-90" source="xXUIt0HnAuLyZIz4e1MF-95" target="xXUIt0HnAuLyZIz4e1MF-98" edge="1">
          <mxGeometry relative="1" as="geometry">
            <Array as="points">
              <mxPoint x="289" y="198" />
              <mxPoint x="204" y="198" />
            </Array>
          </mxGeometry>
        </mxCell>
        <mxCell id="xXUIt0HnAuLyZIz4e1MF-95" value="0110" style="text;strokeColor=none;align=center;fillColor=none;verticalAlign=middle;rounded=0;fontFamily=OPPO Sans;fontSize=18;fontColor=default;sketch=1;curveFitting=1;jiggle=1;" parent="xXUIt0HnAuLyZIz4e1MF-90" vertex="1">
          <mxGeometry x="272" y="145" width="34" height="25" as="geometry" />
        </mxCell>
        <mxCell id="xXUIt0HnAuLyZIz4e1MF-98" value="86" style="text;strokeColor=none;align=center;fillColor=none;verticalAlign=middle;rounded=0;fontFamily=OPPO Sans;fontSize=18;fontColor=default;sketch=1;curveFitting=1;jiggle=1;" parent="xXUIt0HnAuLyZIz4e1MF-90" vertex="1">
          <mxGeometry x="188.5" y="274" width="30" height="20" as="geometry" />
        </mxCell>
        <mxCell id="xXUIt0HnAuLyZIz4e1MF-108" value="" style="edgeStyle=orthogonalEdgeStyle;rounded=0;orthogonalLoop=1;jettySize=auto;exitX=0.5;exitY=1;exitDx=0;exitDy=0;entryX=0.5;entryY=0;entryDx=0;entryDy=0;fontFamily=OPPO Sans;fontSize=18;fontColor=default;sketch=1;curveFitting=1;jiggle=1;" parent="xXUIt0HnAuLyZIz4e1MF-90" source="xXUIt0HnAuLyZIz4e1MF-101" target="xXUIt0HnAuLyZIz4e1MF-93" edge="1">
          <mxGeometry relative="1" as="geometry" />
        </mxCell>
        <mxCell id="xXUIt0HnAuLyZIz4e1MF-110" value="十进制：11" style="shape=note;backgroundOutline=1;fontColor=#000000;darkOpacity=0.05;fillColor=#FFF9B2;strokeColor=none;fillStyle=solid;direction=west;gradientDirection=north;gradientColor=#FFF2A1;shadow=1;size=8;pointerEvents=1;hachureGap=4;align=center;verticalAlign=middle;fontFamily=OPPO Sans;fontSize=18;sketch=1;curveFitting=1;jiggle=0;" parent="xXUIt0HnAuLyZIz4e1MF-90" vertex="1">
          <mxGeometry x="152" y="145" width="92" height="27" as="geometry" />
        </mxCell>
        <mxCell id="xXUIt0HnAuLyZIz4e1MF-115" value="" style="edgeStyle=orthogonalEdgeStyle;rounded=0;orthogonalLoop=1;jettySize=auto;exitX=0.5;exitY=1;exitDx=0;exitDy=0;entryX=0.5;entryY=0;entryDx=0;entryDy=0;fontFamily=OPPO Sans;fontSize=18;fontColor=default;sketch=1;curveFitting=1;jiggle=1;" parent="xXUIt0HnAuLyZIz4e1MF-90" source="xXUIt0HnAuLyZIz4e1MF-107" target="xXUIt0HnAuLyZIz4e1MF-95" edge="1">
          <mxGeometry relative="1" as="geometry" />
        </mxCell>
        <mxCell id="xXUIt0HnAuLyZIz4e1MF-117" value="" style="edgeStyle=orthogonalEdgeStyle;rounded=0;orthogonalLoop=1;jettySize=auto;entryX=0;entryY=0.5;entryDx=0;entryDy=0;fontFamily=OPPO Sans;fontSize=18;fontColor=default;endArrow=none;endFill=0;dashed=1;sketch=1;curveFitting=1;jiggle=1;" parent="xXUIt0HnAuLyZIz4e1MF-90" source="xXUIt0HnAuLyZIz4e1MF-118" target="xXUIt0HnAuLyZIz4e1MF-101" edge="1">
          <mxGeometry relative="1" as="geometry" />
        </mxCell>
        <mxCell id="xXUIt0HnAuLyZIz4e1MF-118" value="二进制" style="shape=note;backgroundOutline=1;fontColor=#000000;darkOpacity=0.05;fillColor=#FFF9B2;strokeColor=none;fillStyle=solid;direction=west;gradientDirection=north;gradientColor=#FFF2A1;shadow=1;size=10;pointerEvents=1;hachureGap=4;align=center;verticalAlign=middle;fontFamily=OPPO Sans;fontSize=18;sketch=1;curveFitting=1;jiggle=1;" parent="xXUIt0HnAuLyZIz4e1MF-90" vertex="1">
          <mxGeometry x="23.5" y="61" width="80" height="40" as="geometry" />
        </mxCell>
        <mxCell id="xXUIt0HnAuLyZIz4e1MF-119" value="" style="edgeStyle=orthogonalEdgeStyle;rounded=0;orthogonalLoop=1;jettySize=auto;entryX=0;entryY=0.5;entryDx=0;entryDy=0;fontFamily=OPPO Sans;fontSize=18;fontColor=default;endArrow=none;endFill=0;dashed=1;sketch=1;curveFitting=1;jiggle=1;" parent="xXUIt0HnAuLyZIz4e1MF-90" source="xXUIt0HnAuLyZIz4e1MF-120" target="xXUIt0HnAuLyZIz4e1MF-98" edge="1">
          <mxGeometry relative="1" as="geometry" />
        </mxCell>
        <mxCell id="xXUIt0HnAuLyZIz4e1MF-120" value="十六进制" style="shape=note;backgroundOutline=1;fontColor=#000000;darkOpacity=0.05;fillColor=#FFF9B2;strokeColor=none;fillStyle=solid;direction=west;gradientDirection=north;gradientColor=#FFF2A1;shadow=1;size=10;pointerEvents=1;hachureGap=4;align=center;verticalAlign=middle;fontFamily=OPPO Sans;fontSize=18;sketch=1;curveFitting=1;jiggle=1;" parent="xXUIt0HnAuLyZIz4e1MF-90" vertex="1">
          <mxGeometry x="33.5" y="264" width="80" height="40" as="geometry" />
        </mxCell>
        <mxCell id="xXUIt0HnAuLyZIz4e1MF-103" value="" style="endArrow=none;rounded=0;fontFamily=OPPO Sans;fontSize=18;fontColor=default;entryX=0.348;entryY=0.985;entryDx=0;entryDy=0;entryPerimeter=0;sketch=1;curveFitting=1;jiggle=1;" parent="xXUIt0HnAuLyZIz4e1MF-90" edge="1">
          <mxGeometry width="50" height="50" relative="1" as="geometry">
            <mxPoint x="195" y="91" as="sourcePoint" />
            <mxPoint x="225" y="91" as="targetPoint" />
          </mxGeometry>
        </mxCell>
        <mxCell id="xXUIt0HnAuLyZIz4e1MF-100" value="" style="endArrow=none;rounded=0;fontFamily=OPPO Sans;fontSize=18;fontColor=default;entryX=0.348;entryY=0.985;entryDx=0;entryDy=0;entryPerimeter=0;sketch=1;curveFitting=1;jiggle=1;" parent="xXUIt0HnAuLyZIz4e1MF-90" edge="1">
          <mxGeometry width="50" height="50" relative="1" as="geometry">
            <mxPoint x="160" y="91" as="sourcePoint" />
            <mxPoint x="190" y="91" as="targetPoint" />
          </mxGeometry>
        </mxCell>
        <mxCell id="xXUIt0HnAuLyZIz4e1MF-101" value="1011" style="text;strokeColor=none;align=center;fillColor=none;verticalAlign=middle;rounded=0;fontFamily=OPPO Sans;fontSize=18;fontColor=default;sketch=1;curveFitting=1;jiggle=1;" parent="xXUIt0HnAuLyZIz4e1MF-90" vertex="1">
          <mxGeometry x="160" y="71" width="30" height="20" as="geometry" />
        </mxCell>
        <mxCell id="xXUIt0HnAuLyZIz4e1MF-107" value="0110" style="text;strokeColor=none;align=center;fillColor=none;verticalAlign=middle;rounded=0;fontFamily=OPPO Sans;fontSize=18;fontColor=default;sketch=1;curveFitting=1;jiggle=1;" parent="xXUIt0HnAuLyZIz4e1MF-90" vertex="1">
          <mxGeometry x="190" y="71" width="40" height="20" as="geometry" />
        </mxCell>
        <mxCell id="xXUIt0HnAuLyZIz4e1MF-121" value="十进制：6" style="shape=note;backgroundOutline=1;fontColor=#000000;darkOpacity=0.05;fillColor=#FFF9B2;strokeColor=none;fillStyle=solid;direction=west;gradientDirection=north;gradientColor=#FFF2A1;shadow=1;size=8;pointerEvents=1;hachureGap=4;align=center;verticalAlign=middle;fontFamily=OPPO Sans;fontSize=18;sketch=1;curveFitting=1;jiggle=0;" parent="xXUIt0HnAuLyZIz4e1MF-90" vertex="1">
          <mxGeometry x="352" y="148" width="92" height="27" as="geometry" />
        </mxCell>
        <mxCell id="xXUIt0HnAuLyZIz4e1MF-127" value="" style="edgeStyle=orthogonalEdgeStyle;rounded=0;orthogonalLoop=1;jettySize=auto;exitX=1;exitY=0.5;exitDx=0;exitDy=0;entryX=1.002;entryY=0.501;entryDx=0;entryDy=0;entryPerimeter=0;fontFamily=OPPO Sans;fontSize=18;fontColor=default;dashed=1;endArrow=none;endFill=0;sketch=1;curveFitting=1;jiggle=1;" parent="xXUIt0HnAuLyZIz4e1MF-90" source="xXUIt0HnAuLyZIz4e1MF-93" target="xXUIt0HnAuLyZIz4e1MF-110" edge="1">
          <mxGeometry relative="1" as="geometry" />
        </mxCell>
        <mxCell id="xXUIt0HnAuLyZIz4e1MF-128" value="" style="edgeStyle=orthogonalEdgeStyle;rounded=0;orthogonalLoop=1;jettySize=auto;entryX=0;entryY=0;entryDx=92;entryDy=17.5;entryPerimeter=0;fontFamily=OPPO Sans;fontSize=18;fontColor=default;dashed=1;endArrow=none;endFill=0;sketch=1;curveFitting=1;jiggle=1;" parent="xXUIt0HnAuLyZIz4e1MF-90" source="xXUIt0HnAuLyZIz4e1MF-95" target="xXUIt0HnAuLyZIz4e1MF-121" edge="1">
          <mxGeometry relative="1" as="geometry" />
        </mxCell>
        <mxCell id="xXUIt0HnAuLyZIz4e1MF-132" value="十六进制：8" style="shape=note;backgroundOutline=1;fontColor=#000000;darkOpacity=0.05;fillColor=#FFF9B2;strokeColor=none;fillStyle=solid;direction=west;gradientDirection=north;gradientColor=#FFF2A1;shadow=1;size=8;pointerEvents=1;hachureGap=4;align=center;verticalAlign=middle;fontFamily=OPPO Sans;fontSize=18;sketch=1;curveFitting=1;jiggle=0;" parent="xXUIt0HnAuLyZIz4e1MF-90" vertex="1">
          <mxGeometry x="72" y="214" width="111.5" height="27" as="geometry" />
        </mxCell>
        <mxCell id="xXUIt0HnAuLyZIz4e1MF-133" value="十六进制：6" style="shape=note;backgroundOutline=1;fontColor=#000000;darkOpacity=0.05;fillColor=#FFF9B2;strokeColor=none;fillStyle=solid;direction=west;gradientDirection=north;gradientColor=#FFF2A1;shadow=1;size=8;pointerEvents=1;hachureGap=4;align=center;verticalAlign=middle;fontFamily=OPPO Sans;fontSize=18;sketch=1;curveFitting=1;jiggle=0;" parent="xXUIt0HnAuLyZIz4e1MF-90" vertex="1">
          <mxGeometry x="230" y="214" width="110" height="27" as="geometry" />
        </mxCell>
        <mxCell id="xXUIt0HnAuLyZIz4e1MF-137" value="" style="edgeStyle=orthogonalEdgeStyle;rounded=0;orthogonalLoop=1;jettySize=auto;exitX=0.5;exitY=0;exitDx=0;exitDy=0;exitPerimeter=0;entryX=0.5;entryY=1;entryDx=0;entryDy=0;entryPerimeter=0;fontFamily=OPPO Sans;fontSize=18;fontColor=default;dashed=1;endArrow=none;endFill=0;sketch=1;curveFitting=1;jiggle=1;" parent="xXUIt0HnAuLyZIz4e1MF-90" source="xXUIt0HnAuLyZIz4e1MF-110" target="xXUIt0HnAuLyZIz4e1MF-132" edge="1">
          <mxGeometry relative="1" as="geometry">
            <Array as="points">
              <mxPoint x="198" y="190" />
              <mxPoint x="128" y="190" />
            </Array>
          </mxGeometry>
        </mxCell>
        <mxCell id="xXUIt0HnAuLyZIz4e1MF-138" value="" style="edgeStyle=orthogonalEdgeStyle;rounded=0;orthogonalLoop=1;jettySize=auto;entryX=0;entryY=0.5;entryDx=0;entryDy=0;entryPerimeter=0;fontFamily=OPPO Sans;fontSize=18;fontColor=default;dashed=1;endArrow=none;endFill=0;sketch=1;curveFitting=1;jiggle=1;" parent="xXUIt0HnAuLyZIz4e1MF-90" source="xXUIt0HnAuLyZIz4e1MF-121" target="xXUIt0HnAuLyZIz4e1MF-133" edge="1">
          <mxGeometry relative="1" as="geometry">
            <Array as="points">
              <mxPoint x="392" y="228" />
            </Array>
          </mxGeometry>
        </mxCell>
      </root>
    </mxGraphModel>
  </diagram>
  <diagram id="vaj2P6nuqTu2nlBi3_z4" name="decToOther">
    <mxGraphModel dx="1050" dy="669" grid="1" gridSize="10" guides="1" tooltips="1" connect="1" arrows="1" fold="1" page="1" pageScale="1" pageWidth="291" pageHeight="413" math="0" shadow="0">
      <root>
        <mxCell id="0" />
        <mxCell id="1" parent="0" />
        <mxCell id="elPwlVYJbEk3kG42QLvl-1" value="" style="swimlane;startSize=0;hachureGap=4;strokeColor=#d6b656;align=left;verticalAlign=middle;fontFamily=OPPO Sans;fontSize=18;fillColor=#fff2cc;sketch=1;curveFitting=1;jiggle=1;" parent="1" vertex="1">
          <mxGeometry x="80" y="20" width="350" height="360" as="geometry" />
        </mxCell>
        <mxCell id="elPwlVYJbEk3kG42QLvl-3" value="十进制：12345" style="shape=note;backgroundOutline=1;fontColor=#000000;darkOpacity=0.05;fillColor=#FFF9B2;strokeColor=none;fillStyle=solid;direction=west;gradientDirection=north;gradientColor=#FFF2A1;shadow=1;size=11;pointerEvents=1;hachureGap=4;align=center;verticalAlign=middle;fontFamily=OPPO Sans;fontSize=18;sketch=1;curveFitting=1;jiggle=1;" parent="elPwlVYJbEk3kG42QLvl-1" vertex="1">
          <mxGeometry x="10" y="30" width="140" height="40" as="geometry" />
        </mxCell>
        <mxCell id="elPwlVYJbEk3kG42QLvl-4" value="十进制：12345" style="shape=note;backgroundOutline=1;fontColor=#000000;darkOpacity=0.05;fillColor=#FFF9B2;strokeColor=none;fillStyle=solid;direction=west;gradientDirection=north;gradientColor=#FFF2A1;shadow=1;size=11;pointerEvents=1;hachureGap=4;align=center;verticalAlign=middle;fontFamily=OPPO Sans;fontSize=18;sketch=1;curveFitting=1;jiggle=1;" parent="elPwlVYJbEk3kG42QLvl-1" vertex="1">
          <mxGeometry x="190" y="30" width="140" height="40" as="geometry" />
        </mxCell>
        <mxCell id="elPwlVYJbEk3kG42QLvl-5" value="" style="edgeStyle=orthogonalEdgeStyle;rounded=0;orthogonalLoop=1;jettySize=auto;exitX=0;exitY=0.5;exitDx=0;exitDy=0;exitPerimeter=0;entryX=0;entryY=0;entryDx=140;entryDy=20;entryPerimeter=0;fontFamily=OPPO Sans;fontSize=18;fontColor=default;endArrow=classic;endFill=1;sketch=1;curveFitting=1;jiggle=0;" parent="elPwlVYJbEk3kG42QLvl-1" source="elPwlVYJbEk3kG42QLvl-3" target="elPwlVYJbEk3kG42QLvl-4" edge="1">
          <mxGeometry relative="1" as="geometry" />
        </mxCell>
        <mxCell id="elPwlVYJbEk3kG42QLvl-6" value="12345" style="shape=partialRectangle;bottom=0;right=0;fillColor=#ffff88;hachureGap=4;strokeColor=#36393d;align=left;verticalAlign=middle;fontFamily=OPPO Sans;fontSize=18;direction=west;flipH=1;spacingLeft=4;sketch=1;curveFitting=1;jiggle=0;" parent="elPwlVYJbEk3kG42QLvl-1" vertex="1">
          <mxGeometry x="70" y="110" width="60" height="40" as="geometry" />
        </mxCell>
        <mxCell id="elPwlVYJbEk3kG42QLvl-7" value="1234" style="shape=partialRectangle;bottom=0;right=0;fillColor=#ffff88;hachureGap=4;strokeColor=#36393d;align=left;verticalAlign=middle;fontFamily=OPPO Sans;fontSize=18;direction=west;flipH=1;spacingLeft=4;sketch=1;curveFitting=1;jiggle=0;" parent="elPwlVYJbEk3kG42QLvl-1" vertex="1">
          <mxGeometry x="90" y="150" width="50" height="40" as="geometry" />
        </mxCell>
        <mxCell id="elPwlVYJbEk3kG42QLvl-9" value="123" style="shape=partialRectangle;bottom=0;right=0;fillColor=#ffff88;hachureGap=4;strokeColor=#36393d;align=left;verticalAlign=middle;fontFamily=OPPO Sans;fontSize=18;direction=west;flipH=1;spacingLeft=4;sketch=1;curveFitting=1;jiggle=0;" parent="elPwlVYJbEk3kG42QLvl-1" vertex="1">
          <mxGeometry x="111" y="190" width="39" height="40" as="geometry" />
        </mxCell>
        <mxCell id="elPwlVYJbEk3kG42QLvl-10" value="12" style="shape=partialRectangle;bottom=0;right=0;fillColor=#ffff88;hachureGap=4;strokeColor=#36393d;align=left;verticalAlign=middle;fontFamily=OPPO Sans;fontSize=18;direction=west;flipH=1;spacingLeft=4;sketch=1;curveFitting=1;jiggle=0;" parent="elPwlVYJbEk3kG42QLvl-1" vertex="1">
          <mxGeometry x="130" y="230" width="30" height="40" as="geometry" />
        </mxCell>
        <mxCell id="elPwlVYJbEk3kG42QLvl-11" value="1" style="shape=partialRectangle;bottom=0;right=0;fillColor=#ffff88;hachureGap=4;strokeColor=#36393d;align=left;verticalAlign=middle;fontFamily=OPPO Sans;fontSize=18;direction=west;flipH=1;spacingLeft=4;sketch=1;curveFitting=1;jiggle=0;" parent="elPwlVYJbEk3kG42QLvl-1" vertex="1">
          <mxGeometry x="150" y="270" width="20" height="40" as="geometry" />
        </mxCell>
        <mxCell id="elPwlVYJbEk3kG42QLvl-13" value="10" style="text;strokeColor=none;align=center;fillColor=none;verticalAlign=middle;rounded=0;fontFamily=OPPO Sans;fontSize=18;fontColor=default;sketch=1;curveFitting=1;jiggle=2;" parent="elPwlVYJbEk3kG42QLvl-1" vertex="1">
          <mxGeometry x="30" y="110" width="40" height="40" as="geometry" />
        </mxCell>
        <mxCell id="elPwlVYJbEk3kG42QLvl-14" value="10" style="text;strokeColor=none;align=center;fillColor=none;verticalAlign=middle;rounded=0;fontFamily=OPPO Sans;fontSize=18;fontColor=default;sketch=1;curveFitting=1;jiggle=2;" parent="elPwlVYJbEk3kG42QLvl-1" vertex="1">
          <mxGeometry x="50" y="150" width="40" height="40" as="geometry" />
        </mxCell>
        <mxCell id="elPwlVYJbEk3kG42QLvl-15" value="10" style="text;strokeColor=none;align=center;fillColor=none;verticalAlign=middle;rounded=0;fontFamily=OPPO Sans;fontSize=18;fontColor=default;sketch=1;curveFitting=1;jiggle=2;" parent="elPwlVYJbEk3kG42QLvl-1" vertex="1">
          <mxGeometry x="71" y="190" width="40" height="40" as="geometry" />
        </mxCell>
        <mxCell id="elPwlVYJbEk3kG42QLvl-16" value="10" style="text;strokeColor=none;align=center;fillColor=none;verticalAlign=middle;rounded=0;fontFamily=OPPO Sans;fontSize=18;fontColor=default;sketch=1;curveFitting=1;jiggle=2;" parent="elPwlVYJbEk3kG42QLvl-1" vertex="1">
          <mxGeometry x="90" y="230" width="40" height="40" as="geometry" />
        </mxCell>
        <mxCell id="elPwlVYJbEk3kG42QLvl-17" value="10" style="text;strokeColor=none;align=center;fillColor=none;verticalAlign=middle;rounded=0;fontFamily=OPPO Sans;fontSize=18;fontColor=default;sketch=1;curveFitting=1;jiggle=2;" parent="elPwlVYJbEk3kG42QLvl-1" vertex="1">
          <mxGeometry x="110" y="270" width="40" height="40" as="geometry" />
        </mxCell>
        <mxCell id="elPwlVYJbEk3kG42QLvl-18" value="0" style="text;strokeColor=none;align=center;fillColor=none;verticalAlign=middle;rounded=0;fontFamily=OPPO Sans;fontSize=18;fontColor=default;sketch=1;curveFitting=1;jiggle=2;" parent="elPwlVYJbEk3kG42QLvl-1" vertex="1">
          <mxGeometry x="140" y="310" width="40" height="40" as="geometry" />
        </mxCell>
        <mxCell id="elPwlVYJbEk3kG42QLvl-19" value="1" style="text;strokeColor=#6c8ebf;align=center;fillColor=#dae8fc;verticalAlign=middle;rounded=0;fontFamily=OPPO Sans;fontSize=18;sketch=1;curveFitting=1;jiggle=0;" parent="elPwlVYJbEk3kG42QLvl-1" vertex="1">
          <mxGeometry x="190" y="310" width="40" height="40" as="geometry" />
        </mxCell>
        <mxCell id="elPwlVYJbEk3kG42QLvl-20" value="2" style="text;strokeColor=#6c8ebf;align=center;fillColor=#dae8fc;verticalAlign=middle;rounded=0;fontFamily=OPPO Sans;fontSize=18;sketch=1;curveFitting=1;jiggle=0;" parent="elPwlVYJbEk3kG42QLvl-1" vertex="1">
          <mxGeometry x="190" y="270" width="40" height="40" as="geometry" />
        </mxCell>
        <mxCell id="elPwlVYJbEk3kG42QLvl-21" value="3" style="text;strokeColor=#6c8ebf;align=center;fillColor=#dae8fc;verticalAlign=middle;rounded=0;fontFamily=OPPO Sans;fontSize=18;sketch=1;curveFitting=1;jiggle=0;" parent="elPwlVYJbEk3kG42QLvl-1" vertex="1">
          <mxGeometry x="190" y="230" width="40" height="40" as="geometry" />
        </mxCell>
        <mxCell id="elPwlVYJbEk3kG42QLvl-22" value="4" style="text;strokeColor=#6c8ebf;align=center;fillColor=#dae8fc;verticalAlign=middle;rounded=0;fontFamily=OPPO Sans;fontSize=18;sketch=1;curveFitting=1;jiggle=0;" parent="elPwlVYJbEk3kG42QLvl-1" vertex="1">
          <mxGeometry x="190" y="190" width="40" height="40" as="geometry" />
        </mxCell>
        <mxCell id="elPwlVYJbEk3kG42QLvl-23" value="5" style="text;strokeColor=#6c8ebf;align=center;fillColor=#dae8fc;verticalAlign=middle;rounded=0;fontFamily=OPPO Sans;fontSize=18;sketch=1;curveFitting=1;jiggle=0;" parent="elPwlVYJbEk3kG42QLvl-1" vertex="1">
          <mxGeometry x="190" y="150" width="40" height="40" as="geometry" />
        </mxCell>
        <mxCell id="elPwlVYJbEk3kG42QLvl-24" value="" style="edgeStyle=none;orthogonalLoop=1;jettySize=auto;rounded=0;fontFamily=OPPO Sans;fontSize=18;fontColor=default;sketch=1;curveFitting=1;jiggle=0;" parent="elPwlVYJbEk3kG42QLvl-1" edge="1">
          <mxGeometry width="80" relative="1" as="geometry">
            <mxPoint x="245" y="340" as="sourcePoint" />
            <mxPoint x="245" y="160" as="targetPoint" />
            <Array as="points" />
          </mxGeometry>
        </mxCell>
        <mxCell id="elPwlVYJbEk3kG42QLvl-25" value="余数" style="text;strokeColor=none;align=center;fillColor=none;verticalAlign=middle;rounded=0;fontFamily=OPPO Sans;fontSize=18;fontColor=default;sketch=1;curveFitting=1;jiggle=2;" parent="elPwlVYJbEk3kG42QLvl-1" vertex="1">
          <mxGeometry x="190" y="110" width="40" height="40" as="geometry" />
        </mxCell>
        <mxCell id="elPwlVYJbEk3kG42QLvl-26" value="" style="swimlane;startSize=0;hachureGap=4;strokeColor=#d6b656;align=left;verticalAlign=middle;fontFamily=OPPO Sans;fontSize=18;fillColor=#fff2cc;sketch=1;curveFitting=1;jiggle=1;" parent="1" vertex="1">
          <mxGeometry x="430" y="20" width="350" height="360" as="geometry" />
        </mxCell>
        <mxCell id="elPwlVYJbEk3kG42QLvl-27" value="十进制：20" style="shape=note;backgroundOutline=1;fontColor=#000000;darkOpacity=0.05;fillColor=#FFF9B2;strokeColor=none;fillStyle=solid;direction=west;gradientDirection=north;gradientColor=#FFF2A1;shadow=1;size=11;pointerEvents=1;hachureGap=4;align=center;verticalAlign=middle;fontFamily=OPPO Sans;fontSize=18;sketch=1;curveFitting=1;jiggle=1;" parent="elPwlVYJbEk3kG42QLvl-26" vertex="1">
          <mxGeometry x="10" y="30" width="140" height="40" as="geometry" />
        </mxCell>
        <mxCell id="elPwlVYJbEk3kG42QLvl-28" value="二进制：10100" style="shape=note;backgroundOutline=1;fontColor=#000000;darkOpacity=0.05;fillColor=#FFF9B2;strokeColor=none;fillStyle=solid;direction=west;gradientDirection=north;gradientColor=#FFF2A1;shadow=1;size=11;pointerEvents=1;hachureGap=4;align=center;verticalAlign=middle;fontFamily=OPPO Sans;fontSize=18;sketch=1;curveFitting=1;jiggle=1;" parent="elPwlVYJbEk3kG42QLvl-26" vertex="1">
          <mxGeometry x="190" y="30" width="140" height="40" as="geometry" />
        </mxCell>
        <mxCell id="elPwlVYJbEk3kG42QLvl-29" value="" style="edgeStyle=orthogonalEdgeStyle;rounded=0;orthogonalLoop=1;jettySize=auto;exitX=0;exitY=0.5;exitDx=0;exitDy=0;exitPerimeter=0;entryX=0;entryY=0;entryDx=140;entryDy=20;entryPerimeter=0;fontFamily=OPPO Sans;fontSize=18;fontColor=default;endArrow=classic;endFill=1;sketch=1;curveFitting=1;jiggle=0;" parent="elPwlVYJbEk3kG42QLvl-26" source="elPwlVYJbEk3kG42QLvl-27" target="elPwlVYJbEk3kG42QLvl-28" edge="1">
          <mxGeometry relative="1" as="geometry" />
        </mxCell>
        <mxCell id="elPwlVYJbEk3kG42QLvl-30" value="20" style="shape=partialRectangle;bottom=0;right=0;fillColor=#ffff88;hachureGap=4;strokeColor=#36393d;align=left;verticalAlign=middle;fontFamily=OPPO Sans;fontSize=18;direction=west;flipH=1;spacingLeft=4;sketch=1;curveFitting=1;jiggle=0;" parent="elPwlVYJbEk3kG42QLvl-26" vertex="1">
          <mxGeometry x="70" y="110" width="50" height="40" as="geometry" />
        </mxCell>
        <mxCell id="elPwlVYJbEk3kG42QLvl-31" value="10" style="shape=partialRectangle;bottom=0;right=0;fillColor=#ffff88;hachureGap=4;strokeColor=#36393d;align=left;verticalAlign=middle;fontFamily=OPPO Sans;fontSize=18;direction=west;flipH=1;spacingLeft=4;sketch=1;curveFitting=1;jiggle=0;" parent="elPwlVYJbEk3kG42QLvl-26" vertex="1">
          <mxGeometry x="90" y="150" width="40" height="40" as="geometry" />
        </mxCell>
        <mxCell id="elPwlVYJbEk3kG42QLvl-32" value="5" style="shape=partialRectangle;bottom=0;right=0;fillColor=#ffff88;hachureGap=4;strokeColor=#36393d;align=left;verticalAlign=middle;fontFamily=OPPO Sans;fontSize=18;direction=west;flipH=1;spacingLeft=4;sketch=1;curveFitting=1;jiggle=0;" parent="elPwlVYJbEk3kG42QLvl-26" vertex="1">
          <mxGeometry x="111" y="190" width="29" height="40" as="geometry" />
        </mxCell>
        <mxCell id="elPwlVYJbEk3kG42QLvl-33" value="2" style="shape=partialRectangle;bottom=0;right=0;fillColor=#ffff88;hachureGap=4;strokeColor=#36393d;align=left;verticalAlign=middle;fontFamily=OPPO Sans;fontSize=18;direction=west;flipH=1;spacingLeft=4;sketch=1;curveFitting=1;jiggle=0;" parent="elPwlVYJbEk3kG42QLvl-26" vertex="1">
          <mxGeometry x="130" y="230" width="30" height="40" as="geometry" />
        </mxCell>
        <mxCell id="elPwlVYJbEk3kG42QLvl-34" value="1" style="shape=partialRectangle;bottom=0;right=0;fillColor=#ffff88;hachureGap=4;strokeColor=#36393d;align=left;verticalAlign=middle;fontFamily=OPPO Sans;fontSize=18;direction=west;flipH=1;spacingLeft=4;sketch=1;curveFitting=1;jiggle=0;" parent="elPwlVYJbEk3kG42QLvl-26" vertex="1">
          <mxGeometry x="150" y="270" width="20" height="40" as="geometry" />
        </mxCell>
        <mxCell id="elPwlVYJbEk3kG42QLvl-35" value="2" style="text;strokeColor=none;align=center;fillColor=none;verticalAlign=middle;rounded=0;fontFamily=OPPO Sans;fontSize=18;fontColor=default;sketch=1;curveFitting=1;jiggle=2;" parent="elPwlVYJbEk3kG42QLvl-26" vertex="1">
          <mxGeometry x="30" y="110" width="40" height="40" as="geometry" />
        </mxCell>
        <mxCell id="elPwlVYJbEk3kG42QLvl-36" value="2" style="text;strokeColor=none;align=center;fillColor=none;verticalAlign=middle;rounded=0;fontFamily=OPPO Sans;fontSize=18;fontColor=default;sketch=1;curveFitting=1;jiggle=2;" parent="elPwlVYJbEk3kG42QLvl-26" vertex="1">
          <mxGeometry x="50" y="150" width="40" height="40" as="geometry" />
        </mxCell>
        <mxCell id="elPwlVYJbEk3kG42QLvl-37" value="2" style="text;strokeColor=none;align=center;fillColor=none;verticalAlign=middle;rounded=0;fontFamily=OPPO Sans;fontSize=18;fontColor=default;sketch=1;curveFitting=1;jiggle=2;" parent="elPwlVYJbEk3kG42QLvl-26" vertex="1">
          <mxGeometry x="71" y="190" width="40" height="40" as="geometry" />
        </mxCell>
        <mxCell id="elPwlVYJbEk3kG42QLvl-38" value="2" style="text;strokeColor=none;align=center;fillColor=none;verticalAlign=middle;rounded=0;fontFamily=OPPO Sans;fontSize=18;fontColor=default;sketch=1;curveFitting=1;jiggle=2;" parent="elPwlVYJbEk3kG42QLvl-26" vertex="1">
          <mxGeometry x="90" y="230" width="40" height="40" as="geometry" />
        </mxCell>
        <mxCell id="elPwlVYJbEk3kG42QLvl-39" value="2" style="text;strokeColor=none;align=center;fillColor=none;verticalAlign=middle;rounded=0;fontFamily=OPPO Sans;fontSize=18;fontColor=default;sketch=1;curveFitting=1;jiggle=2;" parent="elPwlVYJbEk3kG42QLvl-26" vertex="1">
          <mxGeometry x="110" y="270" width="40" height="40" as="geometry" />
        </mxCell>
        <mxCell id="elPwlVYJbEk3kG42QLvl-40" value="0" style="text;strokeColor=none;align=center;fillColor=none;verticalAlign=middle;rounded=0;fontFamily=OPPO Sans;fontSize=18;fontColor=default;sketch=1;curveFitting=1;jiggle=2;" parent="elPwlVYJbEk3kG42QLvl-26" vertex="1">
          <mxGeometry x="140" y="310" width="40" height="40" as="geometry" />
        </mxCell>
        <mxCell id="elPwlVYJbEk3kG42QLvl-41" value="1" style="text;strokeColor=#6c8ebf;align=center;fillColor=#dae8fc;verticalAlign=middle;rounded=0;fontFamily=OPPO Sans;fontSize=18;sketch=1;curveFitting=1;jiggle=0;" parent="elPwlVYJbEk3kG42QLvl-26" vertex="1">
          <mxGeometry x="190" y="310" width="40" height="40" as="geometry" />
        </mxCell>
        <mxCell id="elPwlVYJbEk3kG42QLvl-42" value="0" style="text;strokeColor=#6c8ebf;align=center;fillColor=#dae8fc;verticalAlign=middle;rounded=0;fontFamily=OPPO Sans;fontSize=18;sketch=1;curveFitting=1;jiggle=0;" parent="elPwlVYJbEk3kG42QLvl-26" vertex="1">
          <mxGeometry x="190" y="270" width="40" height="40" as="geometry" />
        </mxCell>
        <mxCell id="elPwlVYJbEk3kG42QLvl-43" value="1" style="text;strokeColor=#6c8ebf;align=center;fillColor=#dae8fc;verticalAlign=middle;rounded=0;fontFamily=OPPO Sans;fontSize=18;sketch=1;curveFitting=1;jiggle=0;" parent="elPwlVYJbEk3kG42QLvl-26" vertex="1">
          <mxGeometry x="190" y="230" width="40" height="40" as="geometry" />
        </mxCell>
        <mxCell id="elPwlVYJbEk3kG42QLvl-44" value="0" style="text;strokeColor=#6c8ebf;align=center;fillColor=#dae8fc;verticalAlign=middle;rounded=0;fontFamily=OPPO Sans;fontSize=18;sketch=1;curveFitting=1;jiggle=0;" parent="elPwlVYJbEk3kG42QLvl-26" vertex="1">
          <mxGeometry x="190" y="190" width="40" height="40" as="geometry" />
        </mxCell>
        <mxCell id="elPwlVYJbEk3kG42QLvl-45" value="0" style="text;strokeColor=#6c8ebf;align=center;fillColor=#dae8fc;verticalAlign=middle;rounded=0;fontFamily=OPPO Sans;fontSize=18;sketch=1;curveFitting=1;jiggle=0;" parent="elPwlVYJbEk3kG42QLvl-26" vertex="1">
          <mxGeometry x="190" y="150" width="40" height="40" as="geometry" />
        </mxCell>
        <mxCell id="elPwlVYJbEk3kG42QLvl-46" value="" style="edgeStyle=none;orthogonalLoop=1;jettySize=auto;rounded=0;fontFamily=OPPO Sans;fontSize=18;fontColor=default;sketch=1;curveFitting=1;jiggle=0;" parent="elPwlVYJbEk3kG42QLvl-26" edge="1">
          <mxGeometry width="80" relative="1" as="geometry">
            <mxPoint x="245" y="340" as="sourcePoint" />
            <mxPoint x="245" y="160" as="targetPoint" />
            <Array as="points" />
          </mxGeometry>
        </mxCell>
        <mxCell id="elPwlVYJbEk3kG42QLvl-47" value="余数" style="text;strokeColor=none;align=center;fillColor=none;verticalAlign=middle;rounded=0;fontFamily=OPPO Sans;fontSize=18;fontColor=default;sketch=1;curveFitting=1;jiggle=2;" parent="elPwlVYJbEk3kG42QLvl-26" vertex="1">
          <mxGeometry x="190" y="110" width="40" height="40" as="geometry" />
        </mxCell>
      </root>
    </mxGraphModel>
  </diagram>
</mxfile>
